<?xml version="1.0" encoding="UTF-8"?>
<svg id="Layer_2" data-name="Layer 2" xmlns="http://www.w3.org/2000/svg" viewBox="0 0 686 271.28">
  <defs>
    <style>
      .cls-1 {
        stroke-width: 0px;
      }
    </style>
  </defs>
  <g id="Layer_1-2" data-name="Layer 1">
    <g>
      <path class="cls-1" d="M398.31,109.65c-10.88,16.05-21.54,32.25-32.7,48.1-11,15.63-18.06,34.14-33.94,46.97-2.64-27.19,7.22-52.08,9.38-78.83-9.69,14.98-19.6,29.83-28.99,44.99-6.73,10.86-12.54,22.3-19.26,33.18-2.52,4.07-6.46,7.27-11.28,12.52-1.93-6.17-3-9.62-4.09-13.09-27.3,21.16-35.65,21.84-46.87,3.58-6.52,5.72-12.45,12.23-19.57,16.92-15.63,10.28-24.73,6.29-29.47-13.18-5.03,5.83-9.25,11.31-14.08,16.18-9.57,9.64-24.4,13.15-34,7.71-11.34-6.43-13.19-17.61-12.24-29.2,4.07-49.78,50.78-91.27,100.42-89.51,2.4.08,5.28-.45,7.07.68,3.29,2.08,5.94,5.18,8.86,7.85-3.03,2.07-5.79,5.18-9.13,6.01-8.06,2.03-17.16,1.32-24.47,4.69-30.54,14.11-47.13,39.74-54.69,71.57-1,4.22,2.12,9.43,3.33,14.18,4.77-2.13,11.8-2.95,13.92-6.62,8.54-14.76,15.74-30.32,23.05-45.76,2.71-5.74,3.62-12.39,6.64-17.92,4.84-8.84,13.23-8.3,21-4.96,7.49,3.22,7.48,9.92,4.41,16.32-5.35,11.16-11.3,22.04-16.76,33.16-2.56,5.21-4.54,10.69-6.78,16.06.94,1.01,1.88,2.03,2.82,3.04,4.24-2.66,10.02-4.35,12.45-8.17,8.07-12.67,17.74-25.3,21.78-39.39,15.87-55.26,39.41-107.22,64.26-158.74,4.08-8.45,10.15-9.45,17.77-6.42,14.74,5.86,20.35,20.12,12.86,34.12-21.7,40.53-43.99,80.75-65.46,121.4-5.94,11.24-10.18,23.44-14.37,35.5-1.06,3.06,1.06,7.24,1.72,10.9,3.6-1.1,9.03-1.08,10.51-3.48,8.46-13.78,17.67-27.5,23.34-42.48,5.6-14.79,6.8-31.19,10.86-46.64,3.14-11.94,11.69-15.71,22.92-11.55,10.91,4.04,13.22,10.9,7.63,22.81-3.14,6.68-6.35,13.32-8.09,20.67,10.13-14.72,19.54-30.02,30.73-43.88,4.44-5.5,12.62-10.44,19.47-11,12.4-1.01,17.46,8.48,12.5,20.04-2.83,6.59-5.89,13.08-8.8,19.64-.11.24.26.69.81,2.02,8.35-11.99,16.18-23.7,24.55-35,3.76-5.08,7.91-11.83,13.18-13.35,6.31-1.82,15.42-.9,20.62,2.72,3.69,2.56,5.67,12.76,3.63,17.46-6.85,15.7-15.99,30.39-23.98,45.6-4.75,9.04-8.97,18.35-13.44,27.54.93.94,1.86,1.87,2.79,2.81,4.17-2.23,9.7-3.43,12.26-6.86,10.41-13.91,22.75-27.33,29.19-43.05,17.9-43.69,55.14-71.31,98.05-69.1,2,.1,4.42-.39,5.9.55,3.05,1.95,5.6,4.69,8.36,7.1-2.73,2.3-5.38,6.49-8.2,6.6-43.54,1.74-63.2,31.3-77.48,66.57-3.03,7.49-8.64,19.03,1.64,23.61,9.69,4.32,15.33-6.75,19.31-14.1,6.44-11.88,11.41-24.58,16.7-37.05,2.18-5.13,3.26-10.73,5.42-15.87,3.71-8.8,13.32-12.36,21.8-8.19,8.69,4.27,7.76,11.39,4.38,18.41-5.37,11.16-11.42,21.99-16.87,33.11-2.34,4.77-3.89,9.93-5.81,14.92.92.9,1.84,1.8,2.75,2.7,4.29-2.79,10.08-4.61,12.61-8.54,7.91-12.31,15.91-24.87,21.39-38.34,6.45-15.85,9.96-32.87,15.38-49.17,3.74-11.25,11.77-14.69,22.58-10.84,10.7,3.8,13.92,11.54,8.22,21.49-7.11,12.42-14.8,24.5-20.41,38.06,2.32-3.11,4.65-6.22,6.96-9.34,13.33-17.98,26.22-36.3,40.15-53.8,7.41-9.31,18.12-9.98,26.6-3.76,9.48,6.95,6.68,15.32,2.36,23.47-9.18,17.31-18.82,34.37-27.95,51.7-3.01,5.71-5.06,11.93-7.55,17.92,1.19.95,2.39,1.9,3.58,2.85,6.03-4.64,13.12-8.4,17.86-14.12,7.84-9.46,14.07-20.25,21.16-30.34,2.67-3.8,5.85-7.24,8.8-10.84l3.86,1.74c-.23,3.96.61,8.37-.86,11.8-9,21.04-22.14,39.22-42.05,50.93-6.16,3.62-17.13,6.12-21.89,3.01-4.51-2.95-6.28-14.46-4.85-21.28,4.25-20.18,10.68-39.89,14.47-61.12-12.16,16.56-24.51,32.97-36.41,49.71-11.6,16.32-22.73,32.98-35.69,51.84-2.89-6.56-4.1-9.29-5.01-11.37-8.22,4.17-16.22,9.71-25.07,12.37-13.45,4.03-15.12-7.58-17.84-16.87-30.55,31.6-42.95,33.64-60.21,9.93-4.5,4.37-8.73,9.02-13.51,13-5.51,4.58-10.97,10.01-17.43,12.41-6.15,2.28-15.18,3.67-19.92.67-3.82-2.42-5.23-12.41-4.01-18.27,3.5-16.76,8.87-33.13,13.55-49.64,1.04-3.68,2.28-7.3,3.42-10.95-.84-.47-1.68-.93-2.53-1.4Z"/>
      <path class="cls-1" d="M99.13,77.55c22.8-.07,31.79,11.37,26.16,29.76-6.23,20.36-18.72,35.37-40.29,40.21-4.78,1.07-11.43-.36-15.5-3.14-8.15-5.58-5.5-14.68,3.15-19.37,11.04-5.98,21.51-13.21,31.49-20.86,2.71-2.08,2.77-7.61,4.04-11.56-4-.59-8.29-2.41-11.96-1.57-21.48,4.94-45,33.06-46.37,54.67-.8,12.49,3.83,16.51,16.22,15.74,9.84-.61,20.04-1.32,29.58.54,12.81,2.5,20.06,12.3,18.98,25.36-.77,9.32-2.94,19.27-7.32,27.41-16.95,31.43-43.17,50.81-78.96,56.05-19.54,2.86-30.43-6.98-28.03-26.61,2.76-22.61,14.17-40.68,33.73-52.61,5.12-3.12,12.57-5.32,18.06-4.06,4.93,1.13,10,6.97,12.23,11.98.89,2-4.91,8.97-8.97,10.84-15.94,7.32-27.97,18.48-35.91,33.85-1.73,3.36-2.47,9.8-.53,11.8,2.18,2.26,7.89,1.37,12.06,1.3,1.86-.03,3.84-1.16,5.52-2.19,23.77-14.63,38.6-35.75,43.39-63.13,2.47-14.13-3.84-19.75-17.45-17.78-15.52,2.24-31.56,3.51-41.07-11.69-9.66-15.43-2.19-30.4,6.65-43.59,17.7-26.41,43.47-39.08,71.08-41.34Z"/>
      <path class="cls-1" d="M214.69,250.34c40.57-8.66,80.85-19.12,121.76-25.65,110.9-17.69,222.06-33.78,333.15-50.33,16.64-2.48,18.58.04,14.72,16.22-5.18,21.69-5.65,22.3-29.15,22.69-145,2.38-289.02,15.63-432.15,38.78-2.6.42-5.33.05-8,.05-.11-.59-.22-1.18-.32-1.77Z"/>
    </g>
  </g>
</svg>