<?xml version="1.0" encoding="utf-8"?>
<!-- Generator: Adobe Illustrator 28.4.1, SVG Export Plug-In . SVG Version: 6.00 Build 0)  -->
<svg version="1.1" id="Layer_1" xmlns="http://www.w3.org/2000/svg" xmlns:xlink="http://www.w3.org/1999/xlink" x="0px" y="0px"
	 viewBox="0 0 800 800" style="enable-background:new 0 0 800 800;" xml:space="preserve">
<style type="text/css">
	.st0{fill:#FFCC00;}
	.st1{fill-rule:evenodd;clip-rule:evenodd;fill:#FFCC00;}
	.st2{fill:none;stroke:#FFCC00;stroke-width:5;stroke-miterlimit:10;}
</style>
<path class="st0" d="M400,66.7c61.5,0,111,0,151.3,2.9L436.6,241.7H280.1l116.7-175H400z"/>
<path class="st0" d="M115.5,115.5c41.7-41.7,105.2-47.8,221-48.7L220,241.7H70.1C75.1,182.9,86.9,144.1,115.5,115.5z"/>
<path class="st0" d="M729.9,241.7c-4.9-58.8-16.8-97.6-45.3-126.2c-19.9-19.9-44.8-31.7-77.9-38.7l-110,164.9H729.9z"/>
<path class="st1" d="M583.3,733.3c-70.7,0-106.1,0-128-22c-22-22-22-57.3-22-128s0-106.1,22-128c22-22,57.3-22,128-22
	s106.1,0,128,22c22,22,22,57.3,22,128s0,106.1-22,128C689.4,733.3,654,733.3,583.3,733.3z M657.1,509.6c12.8,12.8,12.8,33.5,0,46.3
	l-1.9,1.9c-1.9,1.9-4.5,2.7-7,2.2c-1.6-0.3-4-0.8-6.9-1.8c-5.7-2-13.1-5.7-20.2-12.7c-7-7-10.7-14.5-12.7-20.2
	c-1-2.8-1.5-5.2-1.8-6.9c-0.5-2.6,0.4-5.2,2.2-7l1.9-1.9C623.5,496.8,644.3,496.8,657.1,509.6z M578.3,634.7
	c-4.8,4.8-7.2,7.2-9.9,9.3c-3.1,2.4-6.5,4.5-10.1,6.2c-3,1.4-6.3,2.5-12.7,4.7l-34,11.3c-3.2,1.1-6.7,0.2-9-2.1
	c-2.4-2.4-3.2-5.9-2.1-9l11.3-34c2.2-6.5,3.2-9.7,4.7-12.7c1.7-3.6,3.8-7,6.2-10.1c2.1-2.7,4.5-5.1,9.3-9.9l60-60
	c1.5-1.5,3.9-0.8,4.6,1.2c2.5,7.1,7.1,16.3,15.7,24.9c8.6,8.6,17.8,13.2,24.9,15.7c1.9,0.7,2.6,3.2,1.2,4.6L578.3,634.7z"/>
<path class="st2" d="M67.5,291.7c-0.9,31.3-0.9,67.1-0.9,108.3c0,157.1,0,235.7,48.8,284.5s127.4,48.8,284.5,48.8
	c45.3,0,84,0,117.4-1.2c-29.5-1.9-48.4-7.1-62.1-20.8c-22-22-22-57.3-22-128s0-106.1,22-128c22-22,57.3-22,128-22s106.1,0,128,22
	c13.7,13.7,18.9,32.6,20.8,62.1c1.2-33.4,1.2-72.1,1.2-117.4c0-41.2,0-77-0.9-108.3L67.5,291.7L67.5,291.7z"/>
</svg>
