<?xml version="1.0" encoding="utf-8"?>
<!-- Generator: Adobe Illustrator 28.4.1, SVG Export Plug-In . SVG Version: 6.00 Build 0)  -->
<svg version="1.1" id="Uploaded_to_svgrepo.com" xmlns="http://www.w3.org/2000/svg" xmlns:xlink="http://www.w3.org/1999/xlink"
	 x="0px" y="0px" viewBox="0 0 800 800" style="enable-background:new 0 0 800 800;" xml:space="preserve">
<style type="text/css">
	.st0{fill:#FFCC00;}
</style>
<path class="st0" d="M725,100H75c-41.4,0-75,33.6-75,75v400c0,41.4,33.6,75,75,75h225v75h-37.5c-6.9,0-12.5,5.6-12.5,12.5l0,0
	c0,6.9,5.6,12.5,12.5,12.5h275c6.9,0,12.5-5.6,12.5-12.5l0,0c0-6.9-5.6-12.5-12.5-12.5H500v-75h225c41.4,0,75-33.6,75-75V175
	C800,133.6,766.4,100,725,100z M475,725H325v-75h150V725z M775,575c0,27.6-22.4,50-50,50H75c-27.6,0-50-22.4-50-50V175
	c0-27.6,22.4-50,50-50h650c27.6,0,50,22.4,50,50V575z M645.1,225.7c-19.5-3.9-36.9,7.5-42.8,24.2H450v-25H350v25H197.7
	c-5.9-16.8-23.3-28.1-42.8-24.2c-14.3,2.8-26,14.3-29,28.6c-5.1,24.3,13.2,45.7,36.6,45.7c16.3,0,30.1-10.5,35.2-25H350v5.6
	C240.3,303,156.4,397,150.4,511.8c-0.4,7.2,5.3,13.2,12.5,13.2l0,0c6.6,0,12.1-5.1,12.4-11.7c5.2-101.6,78.3-185.2,174.7-207.2V325
	h100v-18.9c96.3,22,169.5,105.6,174.7,207.2c0.4,6.6,5.9,11.7,12.4,11.7l0,0c7.2,0,12.9-6.1,12.5-13.3
	c-6-114.7-90-208.7-199.7-231.1V275h152.3c5.2,14.5,18.9,25,35.2,25c23.4,0,41.8-21.4,36.6-45.7C671.1,240,659.5,228.6,645.1,225.7z
	 M162.5,275c-6.9,0-12.5-5.6-12.5-12.5c0-6.9,5.6-12.5,12.5-12.5s12.5,5.6,12.5,12.5C175,269.4,169.4,275,162.5,275z M425,300h-50
	v-50h50V300z M637.5,275c-6.9,0-12.5-5.6-12.5-12.5c0-6.9,5.6-12.5,12.5-12.5s12.5,5.6,12.5,12.5C650,269.4,644.4,275,637.5,275z"/>
</svg>
