<?xml version="1.0" encoding="utf-8"?>
<!-- Generator: Adobe Illustrator 28.4.1, SVG Export Plug-In . SVG Version: 6.00 Build 0)  -->
<svg version="1.1" id="Capa_1" xmlns="http://www.w3.org/2000/svg" xmlns:xlink="http://www.w3.org/1999/xlink" x="0px" y="0px"
	 viewBox="0 0 800 800" style="enable-background:new 0 0 800 800;" xml:space="preserve">
<style type="text/css">
	.st0{fill:#FFCC00;}
</style>
<g>
	<g>
		<path class="st0" d="M597.6,244.7H202.4c-12.6,0-22.9,10.2-22.9,22.9v77.9c0,12.7,10.3,22.9,22.9,22.9h395.1
			c12.6,0,22.9-10.2,22.9-22.9v-77.9C620.5,254.9,610.2,244.7,597.6,244.7z M220.8,298.9c-7.8,0-14.1-6.3-14.1-14.1
			c0-7.8,6.3-14.1,14.1-14.1c7.8,0,14.1,6.3,14.1,14.1C234.9,292.6,228.6,298.9,220.8,298.9z M560.2,339.7h-99.8v-33.2h99.8
			L560.2,339.7L560.2,339.7z"/>
		<path class="st0" d="M597.6,380.9H202.4c-12.6,0-22.9,10.2-22.9,22.9v77.9c0,12.6,10.3,22.9,22.9,22.9h395.1
			c12.6,0,22.9-10.2,22.9-22.9v-77.9C620.5,391.2,610.2,380.9,597.6,380.9z M220.8,435.2c-7.8,0-14.1-6.3-14.1-14.1
			c0-7.8,6.3-14.1,14.1-14.1c7.8,0,14.1,6.4,14.1,14.1C234.9,428.9,228.6,435.2,220.8,435.2z M560.2,475.9h-99.8v-33.2h99.8
			L560.2,475.9L560.2,475.9z"/>
		<path class="st0" d="M597.6,517.2H202.4c-12.6,0-22.9,10.2-22.9,22.9V618c0,12.7,10.3,22.9,22.9,22.9h395.1
			c12.6,0,22.9-10.2,22.9-22.9v-77.9C620.5,527.4,610.2,517.2,597.6,517.2z M220.8,571.5c-7.8,0-14.1-6.3-14.1-14.1
			c0-7.8,6.3-14.1,14.1-14.1c7.8,0,14.1,6.3,14.1,14.1C234.9,565.2,228.6,571.5,220.8,571.5z M560.2,612.2h-99.8V579h99.8
			L560.2,612.2L560.2,612.2z"/>
		<polygon class="st0" points="468.2,715.4 426.1,715.4 426.1,654.2 373.9,654.2 373.9,715.4 331.7,715.4 331.7,731.6 184.3,731.6 
			184.3,783.8 331.7,783.8 331.7,800 468.2,800 468.2,783.8 615.6,783.8 615.6,731.6 468.2,731.6 		"/>
		<path class="st0" d="M633.2,119c-5.7-0.5-10.9-3.4-14.2-7.9c-31.7-42.8-82.5-69.2-136.5-69.2c-3.4,0-6.8,0.1-10.2,0.3
			c-4.7,0.3-9.3-1.1-13.1-3.9C426.4,13.4,386.5,0,344.7,0C270,0,203.6,43.3,172.5,108.9c-2.8,6-8.5,10.2-15.1,11.1
			C75,131.6,11.4,202.6,11.4,288.2c0,81.6,57.8,149.9,134.7,166.1v-50.4c0-6.3,1.2-12.3,3.1-17.9c-41.1-13.5-70.9-52.2-70.9-97.7
			c0-56.7,46.2-102.9,102.9-102.9c2.9,0,5.7,0.2,8.5,0.5c16.4,1.3,31.1-9.3,35.1-25.2c13.8-55.1,63.2-93.7,119.9-93.7
			c32.4,0,63.2,12.5,86.5,35.3c8,7.8,19.3,11.1,30.2,8.8c7-1.4,14-2.2,21.1-2.2c39.7,0,75.2,22.3,92.6,58.3
			c6.1,12.6,19.5,20.2,33.4,18.7c3.5-0.3,7-0.5,10.3-0.5c56.7,0,102.9,46.2,102.9,102.9c0,45.6-29.8,84.2-70.9,97.7
			c1.9,5.6,3.1,11.6,3.1,17.9v50.4c76.8-16.2,134.7-84.5,134.7-166.1C788.6,199.4,720.1,126.3,633.2,119z"/>
	</g>
</g>
</svg>
