<?xml version="1.0" encoding="utf-8"?>
<!-- Generator: Adobe Illustrator 28.4.1, SVG Export Plug-In . SVG Version: 6.00 Build 0)  -->
<svg version="1.1" id="Layer_1" xmlns="http://www.w3.org/2000/svg" xmlns:xlink="http://www.w3.org/1999/xlink" x="0px" y="0px"
	 viewBox="0 0 800 800" style="enable-background:new 0 0 800 800;" xml:space="preserve">
<style type="text/css">
	.st0{fill:none;stroke:#FFCC00;stroke-width:64;stroke-miterlimit:333.3333;}
</style>
<path class="st0" d="M185.3,112.7H615c40.1,0,72.7,32.5,72.7,72.7V615c0,40.1-32.5,72.7-72.7,72.7H185.3
	c-40.1,0-72.7-32.5-72.7-72.7V185.3C112.7,145.2,145.2,112.7,185.3,112.7z"/>
<path class="st0" d="M304.3,240.3h191.3c35.3,0,64,28.7,64,64v191.3c0,35.3-28.7,64-64,64H304.3c-35.3,0-64-28.7-64-64V304.3
	C240.3,269,269,240.3,304.3,240.3z"/>
<line class="st0" x1="240.3" y1="16.7" x2="240.3" y2="80.7"/>
<line class="st0" x1="400" y1="16.7" x2="400" y2="80.7"/>
<line class="st0" x1="559.7" y1="16.7" x2="559.7" y2="80.7"/>
<line class="st0" x1="240.3" y1="719.3" x2="240.3" y2="783.3"/>
<line class="st0" x1="400" y1="719.3" x2="400" y2="783.3"/>
<line class="st0" x1="559.7" y1="719.3" x2="559.7" y2="783.3"/>
<line class="st0" x1="16.7" y1="559.7" x2="80.7" y2="559.7"/>
<line class="st0" x1="16.7" y1="400" x2="80.7" y2="400"/>
<line class="st0" x1="16.7" y1="240.3" x2="80.7" y2="240.3"/>
<line class="st0" x1="719.3" y1="559.7" x2="783.3" y2="559.7"/>
<line class="st0" x1="719.3" y1="400" x2="783.3" y2="400"/>
<line class="st0" x1="719.3" y1="240.3" x2="783.3" y2="240.3"/>
</svg>
