<?xml version="1.0" encoding="utf-8"?>
<!-- Generator: Adobe Illustrator 28.4.1, SVG Export Plug-In . SVG Version: 6.00 Build 0)  -->
<svg version="1.1" id="Layer_1" xmlns="http://www.w3.org/2000/svg" xmlns:xlink="http://www.w3.org/1999/xlink" x="0px" y="0px"
	 viewBox="0 0 800 800" style="enable-background:new 0 0 800 800;" xml:space="preserve">
<style type="text/css">
	.st0{fill:none;stroke:#FFCC00;stroke-width:50;stroke-miterlimit:133.3333;}
</style>
<path class="st0" d="M652.1,233.3c7.6-43.5-25.8-83.3-70-83.3H217.9c-44.2,0-77.6,39.8-70,83.3"/>
<path class="st0" d="M583.3,150c0.9-8.6,1.4-13,1.4-16.5c0.1-34.1-25.6-62.8-59.6-66.4c-3.5-0.4-7.9-0.4-16.6-0.4H291.4
	c-8.7,0-13,0-16.6,0.4c-33.9,3.6-59.6,32.3-59.6,66.4c0,3.6,0.5,7.9,1.4,16.5"/>
<path class="st0" d="M486,453.9c18.6,11.5,18.6,41.4,0,52.9l-112.4,69.7c-18.1,11.2-40.3-3.4-40.3-26.5V410.7
	c0-23.1,22.2-37.7,40.3-26.5L486,453.9z"/>
<path class="st0" d="M79.5,459.8c-14.9-105.5-22.3-158.2,9.3-192.3c31.6-34.1,87.8-34.1,200.3-34.1h221.8
	c112.5,0,168.7,0,200.3,34.1c31.6,34.1,24.2,86.9,9.3,192.3l-14.1,100c-11.7,82.7-17.5,124-47.4,148.8
	c-29.9,24.8-74,24.8-162.2,24.8H303.2c-88.2,0-132.3,0-162.2-24.8c-29.9-24.8-35.7-66.1-47.4-148.8L79.5,459.8z"/>
</svg>
