<?xml version="1.0" encoding="utf-8"?>
<!-- Generator: Adobe Illustrator 28.4.1, SVG Export Plug-In . SVG Version: 6.00 Build 0)  -->
<svg version="1.1" id="RESPONSIVE" xmlns="http://www.w3.org/2000/svg" xmlns:xlink="http://www.w3.org/1999/xlink" x="0px" y="0px"
	 viewBox="0 0 800 800" style="enable-background:new 0 0 800 800;" xml:space="preserve">
<style type="text/css">
	.st0{fill:#FFCC00;}
</style>
<g id="Layer">
	<g>
		<path class="st0" d="M777.2,434.7h-17.6h-22.1h-93.9c-10.4,0-18.8,8.4-18.8,18.8v18v22.1v86.1v22.1v94.6
			c0,10.4,8.4,18.8,18.8,18.8h133.6c10.4,0,18.8-8.4,18.8-18.8v-243C796,443.1,787.6,434.7,777.2,434.7z M773.9,693.2h-127v-91.3
			v-22.1v-86.1v-22.1v-14.7h90.6h22.1h14.3V693.2z"/>
		<path class="st0" d="M710.3,657.4c-5.9,0-10.7,4.8-10.7,10.7c0,5.9,4.8,10.7,10.7,10.7c5.9,0,10.7-4.8,10.7-10.7
			C721,662.1,716.2,657.4,710.3,657.4z"/>
		<path class="st0" d="M728.5,471.5c-0.8-0.4-1.7-0.7-2.6-0.7h-30.9c-1,0-1.8,0.3-2.6,0.7c-1.7,0.9-2.9,2.7-2.9,4.8
			c0,3.1,2.5,5.5,5.5,5.5h30.9c3.1,0,5.5-2.5,5.5-5.5C731.4,474.3,730.2,472.4,728.5,471.5z"/>
		<path class="st0" d="M26.1,116.4c0-5.3,3.6-9.5,8-9.5h684.8c4.4,0,8,4.3,8,9.5v299.8h3.6H749V116.4c0-17.5-13.5-31.7-30.1-31.7
			H34.1C17.5,84.7,4,98.9,4,116.4v453.8c0,17.5,13.5,31.7,30.1,31.7H307v91.2H201.7c-6.1,0-11.1,5-11.1,11.1c0,6.1,5,11.1,11.1,11.1
			h116.4h116.8h116.4c6.1,0,11.1-5,11.1-11.1c0-6.1-5-11.1-11.1-11.1H446v-91.2h157v-21.5v-0.6H34.1c-4.4,0-8-4.3-8-9.5v-76.5H603
			v-10.7v-11.4H26.1V116.4z M423.9,693.1h-94.7v-91.2h94.7L423.9,693.1L423.9,693.1z"/>
		<path class="st0" d="M359.2,535.8c0,9.5,7.7,17.3,17.3,17.3c9.5,0,17.3-7.7,17.3-17.3c0-9.5-7.7-17.3-17.3-17.3
			C367,518.5,359.2,526.3,359.2,535.8z"/>
		<path class="st0" d="M121.4,203.3h278c6.1,0,11.1-5,11.1-11.1s-5-11.1-11.1-11.1h-278c-6.1,0-11.1,5-11.1,11.1
			S115.3,203.3,121.4,203.3z"/>
		<path class="st0" d="M631.6,247.3H121.4c-6.1,0-11.1,5-11.1,11.1c0,6.1,5,11.1,11.1,11.1h510.2c6.1,0,11.1-5,11.1-11.1
			C642.7,252.2,637.7,247.3,631.6,247.3z"/>
		<path class="st0" d="M631.6,313.4H121.4c-6.1,0-11.1,5-11.1,11.1c0,6.1,5,11.1,11.1,11.1h510.2c6.1,0,11.1-5,11.1-11.1
			C642.7,318.3,637.7,313.4,631.6,313.4z"/>
		<path class="st0" d="M631.6,379.5H121.4c-6.1,0-11.1,5-11.1,11.1c0,6.1,5,11.1,11.1,11.1h510.2c6.1,0,11.1-5,11.1-11.1
			C642.7,384.4,637.7,379.5,631.6,379.5z"/>
	</g>
</g>
</svg>
