<?xml version="1.0" encoding="utf-8"?>
<!-- Generator: Adobe Illustrator 28.4.1, SVG Export Plug-In . SVG Version: 6.00 Build 0)  -->
<svg version="1.1" id="Layer_1" xmlns="http://www.w3.org/2000/svg" xmlns:xlink="http://www.w3.org/1999/xlink" x="0px" y="0px"
	 viewBox="0 0 498.8 498.8" style="enable-background:new 0 0 498.8 498.8;" xml:space="preserve">
<style type="text/css">
	.st0{fill:#FFCC00;}
</style>
<g>
	<g>
		<g>
			<path class="st0" d="M497.4,48V0H1.4v48h16v240h-16v48h172.4L114,493.2l15,5.7l62-162.8h50.5v160h16V336h50.5l62,162.8l15-5.7
				L325,336h172.4v-48h-16V48H497.4z M481.4,320h-464v-16h464V320z M33.4,288V48h432v240H33.4z M17.4,32V16h464v16H17.4z"/>
			<path class="st0" d="M81.4,128h16c8.8,0,16,7.2,16,16h16c0-17.6-14.4-32-32-32h-16c-17.6,0-32,14.4-32,32s14.4,32,32,32h16
				c8.8,0,16,7.2,16,16s-7.2,16-16,16h-16c-8.8,0-16-7.2-16-16h-16c0,17.6,14.4,32,32,32h16c17.6,0,32-14.4,32-32s-14.4-32-32-32
				h-16c-8.8,0-16-7.2-16-16C65.4,135.2,72.6,128,81.4,128z"/>
			<polygon class="st0" points="145.4,224 225.4,224 225.4,208 161.4,208 161.4,176 209.4,176 209.4,160 161.4,160 161.4,128 
				225.4,128 225.4,112 145.4,112 			"/>
			<path class="st0" d="M309.2,212.7l14.2,16.5l12.2-10.4l-17-19.9c1.9-4.6,2.9-9.6,2.9-14.9v-8h96v-16h-96v-8
				c0-5.3-1.1-10.3-3-14.9l17-19.9l-12.2-10.4l-14.2,16.5c-7.2-7-17-11.3-27.8-11.3c-22.1,0-40,17.9-40,40v32c0,22.1,17.9,40,40,40
				C292.2,224,302,219.7,309.2,212.7z M305.4,152.3v7.7h-6.6L305.4,152.3z M305.4,176v7.7l-6.6-7.7H305.4z M257.4,184v-32
				c0-13.2,10.8-24,24-24c6.8,0,13,2.9,17.3,7.5L270.9,168l27.9,32.5c-4.4,4.6-10.5,7.5-17.3,7.5C268.2,208,257.4,197.2,257.4,184z"
				/>
			<rect x="433.4" y="160" class="st0" width="16" height="16"/>
			<rect x="273.4" y="240" class="st0" width="16" height="16"/>
			<polygon class="st0" points="411.8,229.7 422.1,240 305.4,240 305.4,256 422.1,256 411.8,266.3 423.1,277.7 452.7,248 
				423.1,218.3 			"/>
			<rect x="273.4" y="80" class="st0" width="16" height="16"/>
			<polygon class="st0" points="411.8,69.7 422.1,80 305.4,80 305.4,96 422.1,96 411.8,106.3 423.1,117.7 452.7,88 423.1,58.3 			
				"/>
		</g>
	</g>
</g>
</svg>
