<?xml version="1.0" encoding="utf-8"?>
<!-- Generator: Adobe Illustrator 28.4.1, SVG Export Plug-In . SVG Version: 6.00 Build 0)  -->
<svg version="1.1" id="Capa_1" xmlns="http://www.w3.org/2000/svg" xmlns:xlink="http://www.w3.org/1999/xlink" x="0px" y="0px"
	 viewBox="0 0 800 800" style="enable-background:new 0 0 800 800;" xml:space="preserve">
<style type="text/css">
	.st0{fill:#FFCC00;}
	.st1{fill-rule:evenodd;clip-rule:evenodd;fill:#282828;}
</style>
<g>
	<g>
		<path class="st0" d="M600,173.1c0,11.7,11.7,23.4,28.1,23.4c23.4,0,30.4-9.4,30.4-23.4c0-2.3,0-2.3,0-4.7
			c-2.3-7-9.4-11.7-16.4-16.4c-2.3,0-7-2.3-11.7-2.3C614,149.7,600,159.1,600,173.1z"/>
		<path class="st0" d="M649.1,95.9c-2.4-14-11.7-25.7-23.4-25.7c-11.7,0-18.7,11.7-16.4,25.7s11.7,25.7,23.4,25.7
			C642.1,121.6,651.4,109.9,649.1,95.9z"/>
		<path class="st0" d="M543.9,271.3l39.8-39.8c23.4,18.7,51.5,30.4,81.9,30.4c72.5,0,131-58.5,131-131c0-72.5-58.5-131-131-131
			c-72.5,0-131,58.5-131,131c0,32.7,11.7,60.8,30.4,81.9l-39.8,39.8C532.1,259.6,539.2,266.7,543.9,271.3z M686.5,88.9h25.7V63.2
			h9.4v25.7h25.7v9.4h-25.7V124h-9.4V98.2h-25.7V88.9L686.5,88.9z M628.1,133.3c0-2.3,0-4.7,2.4-7c-2.4,0-2.4,0-4.7,0
			c-18.7,0-32.8-14-32.8-30.4s18.7-30.4,37.4-30.4h42.1l-9.4,7h-14c9.4,2.3,14,14,14,25.7c0,9.4-4.7,16.4-11.7,23.4
			c-7,4.7-9.4,7-9.4,11.7s7,11.7,11.7,14c11.7,7,14,16.4,14,28.1c0,16.4-14,30.4-42.1,30.4c-23.4,0-44.4-9.4-44.4-25.7
			s18.7-30.4,42.1-30.4c2.3,0,4.7,0,7,0C630.4,142.7,628.1,138,628.1,133.3z"/>
		<path class="st0" d="M665.5,538c-30.4,0-60.8,11.7-81.9,30.4l-39.8-39.8c-4.7,7-11.7,11.7-16.4,16.4l39.8,39.8
			c-18.7,23.4-30.4,51.5-30.4,81.9c0,72.5,58.5,131,131,131c72.5,0,131-58.5,131-131C796.5,594.1,738,538,665.5,538z M628.1,727.5
			h-25.7v-81.9h25.7V727.5z M616.4,633.9L616.4,633.9c-9.4,0-16.4-7-16.4-14.1c0-7,7-14,16.4-14s16.4,7,16.4,14
			C630.4,629.2,625.7,633.9,616.4,633.9z M733.3,727.5h-30.4v-42.1c0-11.7-4.7-18.7-14-18.7c-7,0-11.7,4.7-14,9.4c0,2.4,0,4.7,0,7
			v44.5h-28.1c0,0,0-74.9,0-81.9h28.1v11.7c2.3-4.7,11.7-14,25.7-14c18.7,0,32.7,11.7,32.7,37.4L733.3,727.5L733.3,727.5z"/>
		<path class="st0" d="M253.8,528.7L214,568.4c-23.4-18.7-51.5-30.4-81.9-30.4c-72.5,0-131,58.5-131,131c0,72.5,58.5,131,131,131
			c72.5,0,131-58.5,131-131c0-30.4-11.7-60.8-30.4-81.9l39.8-39.8C265.5,540.3,258.5,533.3,253.8,528.7z M188.3,647.9
			c0,39.8-30.4,84.2-84.2,84.2c-16.4,0-32.7-4.7-44.4-14.1c2.3,0,4.7,0,7,0c14,0,25.7-4.7,37.4-11.7c-11.7,0-23.4-9.4-28.1-21.1
			c2.3,0,4.7,0,4.7,0c2.3,0,4.7,0,7,0c-14-2.4-23.4-14-23.4-28.1l0,0c4.7,2.3,9.4,4.7,14,4.7c-7-4.7-14-14-14-23.4
			c0-4.7,2.3-9.4,4.7-14c14,18.7,35.1,30.4,60.8,30.4c0-2.4,0-4.7,0-7c0-16.4,14-30.4,30.4-30.4c9.4,0,16.4,4.7,21.1,9.4
			c7-2.3,14-4.7,18.7-7c-2.3,7-7,11.7-14,16.4c7,0,11.7-2.3,16.4-4.7c-4.7,7-9.4,11.7-14,14C188.3,645.6,188.3,645.6,188.3,647.9z"
			/>
		<path class="st0" d="M132.2,262c30.4,0,60.8-11.7,81.9-30.4l39.8,39.8c4.7-7,11.7-11.7,16.4-16.4l-39.8-39.8
			c18.7-23.4,30.4-51.5,30.4-81.9c0-72.5-58.5-131-131-131C57.3,2.3,1.2,60.8,1.2,133.3C1.2,203.5,59.6,262,132.2,262z M101.8,109.9
			h14v-14c0-18.7,7-30.4,30.4-30.4h18.7v23.4h-11.7c-9.4,0-9.4,2.3-9.4,9.4v11.7h21.1l-2.3,23.4h-21.1v65.5h-28.1v-65.5h-14v-23.4
			H101.8z"/>
		<g>
			<path class="st0" d="M518.1,465.5c-2.4-4.7-7-7-9.4-7c-21.1-7-39.8-11.7-60.8-18.7c-2.3,0-7-4.7-7-14c0-4.7,0-7-4.7-7
				c-2.4,0,0,0-2.4-2.3c-2.3-9.4-2.3-14-2.3-16.4s2.3-2.3,2.3-4.7c7-9.4,9.4-23.4,9.4-28.1c0,0,2.3,0,2.3-2.3
				c2.3-4.7,2.3-4.7,2.3-11.7c2.4-4.7,2.4-11.7-2.3-11.7c-2.3,2.3-2.3,0-2.3-4.7v-28.1c0-9.4-7-16.4-11.7-18.7c-7-4.7-9.4-7-11.7-7
				c-2.3-2.3-2.3-4.7,0-7c2.3-2.3,4.7-2.3,4.7-4.7c0,0,0,0-2.3,0s-16.4,2.4-23.4,4.7c-11.7,2.3-23.4,7-32.8,14
				c-7,4.7-11.7,11.7-11.7,21.1c0,4.7,0,18.7,0,28.1c0,2.4,0,4.7-2.3,2.4c-7,0-2.3,9.4-2.3,11.7c0,4.7,2.3,7,4.7,11.7
				c0,2.3,2.3,2.3,2.3,2.3c2.3,7,4.7,21.1,9.4,28.1c0,0,2.3,2.3,2.3,4.7c0,4.7,0,11.7-2.3,16.4c0,0,0,2.3-2.3,2.3
				c-4.7,0-4.7,2.3-4.7,7c0,7-4.7,14-7,14c-11.7,4.7-46.8,16.4-58.5,18.7c-7,2.4-9.4,4.7-11.7,7l-11.7,28.1
				c46.8,0,70.2,28.1,119.3,37.4h23.4c49.1-7,84.2-37.4,117-37.4L518.1,465.5z"/>
		</g>
	</g>
</g>
<circle class="st0" cx="660.8" cy="136.8" r="100.9"/>
<g id="Page-1">
	<g id="Dribbble-Light-Preview" transform="translate(-340.000000, -7439.000000)">
		<g id="icons" transform="translate(56.000000, 160.000000)">
			<path id="instagram-_x5B__x23_167_x5D_" class="st1" d="M929.7,7337.6c-11.1,0.5-20.8,3.2-28.6,11c-7.8,7.8-10.5,17.5-11,28.5
				c-0.3,6.9-2.1,58.9,3.2,72.6c3.6,9.2,10.6,16.3,19.9,19.9c4.3,1.7,9.3,2.8,16.5,3.2c60.7,2.7,83.2,1.3,92.7-23
				c1.7-4.3,2.8-9.3,3.2-16.5c2.8-60.8-0.4-74-11-84.6C1006.1,7340.2,996.2,7334.5,929.7,7337.6 M930.2,7460.5
				c-6.6-0.3-10.2-1.4-12.7-2.3c-6.1-2.4-10.6-6.9-12.9-12.9c-4-10.4-2.7-59.6-2.3-67.6c0.4-7.8,1.9-14.9,7.4-20.4
				c6.8-6.8,15.6-10.1,75.6-7.4c7.8,0.4,15,1.9,20.5,7.4c6.8,6.8,10.2,15.7,7.4,75.4c-0.3,6.6-1.4,10.2-2.3,12.6
				C1004.7,7461.1,990.5,7463.3,930.2,7460.5 M986,7368.9c0,4.5,3.7,8.2,8.2,8.2c4.5,0,8.2-3.7,8.2-8.2c0-4.5-3.7-8.2-8.2-8.2
				C989.6,7360.7,986,7364.4,986,7368.9 M922.8,7405.1c0,19.3,15.7,34.9,35,34.9c19.3,0,35-15.6,35-34.9s-15.7-34.9-35-34.9
				C938.4,7370.2,922.8,7385.9,922.8,7405.1 M935,7405.1c0-12.5,10.2-22.7,22.7-22.7c12.5,0,22.7,10.1,22.7,22.7
				c0,12.5-10.2,22.7-22.7,22.7C945.2,7427.8,935,7417.7,935,7405.1"/>
		</g>
	</g>
</g>
</svg>
