<?xml version="1.0" encoding="utf-8"?>
<!-- Generator: Adobe Illustrator 28.4.1, SVG Export Plug-In . SVG Version: 6.00 Build 0)  -->
<svg version="1.1" id="Layer_1" xmlns="http://www.w3.org/2000/svg" xmlns:xlink="http://www.w3.org/1999/xlink" x="0px" y="0px"
	 viewBox="0 0 800 800" style="enable-background:new 0 0 800 800;" xml:space="preserve">
<style type="text/css">
	.st0{fill:none;stroke:#FFCC00;stroke-width:63.6667;stroke-miterlimit:333.3333;}
</style>
<circle class="st0" cx="400" cy="304" r="63.7"/>
<path class="st0" d="M242.7,461.3c-87-86.9-87-227.9-0.1-314.9c0,0,0.1-0.1,0.1-0.1"/>
<path class="st0" d="M557.3,146.3c87,86.9,87,227.9,0.1,314.9c0,0-0.1,0.1-0.1,0.1"/>
<path class="st0" d="M152.7,551.3C16,415.2,15.5,194,151.7,57.3c0.3-0.3,0.6-0.6,1-1"/>
<path class="st0" d="M647.3,56.3c136.7,136.2,137.1,357.3,1,494c-0.3,0.3-0.6,0.6-1,1"/>
<path class="st0" d="M400,366.7L400,366.7c52.7,0,95.3,42.7,95.3,95.3l0,0c0.1,83.6-19.3,166.1-56.7,241l-7,13.7h-63.3l-7-13.7
	c-37.3-74.9-56.7-157.4-56.7-241l0,0C304.7,409.3,347.3,366.7,400,366.7L400,366.7z"/>
</svg>
