<?xml version="1.0" encoding="utf-8"?>
<!-- Generator: Adobe Illustrator 28.4.1, SVG Export Plug-In . SVG Version: 6.00 Build 0)  -->
<svg version="1.1" id="Capa_1" xmlns="http://www.w3.org/2000/svg" xmlns:xlink="http://www.w3.org/1999/xlink" x="0px" y="0px"
	 viewBox="0 0 800 800" style="enable-background:new 0 0 800 800;" xml:space="preserve">
<style type="text/css">
	.st0{opacity:0.88;fill:#FFCC00;enable-background:new    ;}
</style>
<g>
	<g>
		<path class="st0" d="M786.4,259.8c-0.1-0.5-0.4-1-0.7-1.4l-1.9-2.4l0.5-1.9c0.2-0.7,0.2-1.4,0-2c-13.1-45.1-35.2-89.4-63.9-128.1
			c-0.4-0.6-1-1-1.6-1.3l-4.8-2c-1.2-0.5-2.7-0.4-3.8,0.4l-3.8,2.6c-2.6-3.3-5.3-6.9-6.8-8.8c-6.6-7.2-12.1-14.6-14.6-17.9
			c0.2-0.7,0.2-1.4-0.1-2.1l-2-5.8c-3.8-7.4-15.7-17.2-17.3-18.5c-0.5-0.3-5-3.5-8.4-4.8c-3.6-1.4-7.3-1.6-7.7-1.6
			c-0.8,0-1.6,0.2-2.3,0.6c-10.4-7.4-32.9-25.5-33.2-25.8c-0.4-0.3-0.8-0.5-1.3-0.7l-4.5-1.4c-1.5-0.5-2.6-0.4-3.6,0.7
			c0,0-1.1,0.7-4.7,1.7c-4.6,1.2-8.6,1.7-12.1,2.2l-0.9,0.1c-4.8,0.6-6.5,2.6-7,4.1l-6.5,10.4c-0.2,0.3-0.3,0.6-0.4,1
			c-0.2,0.5-0.4,1.7,0.1,3.5c-0.1-0.2-0.2-0.3-0.2-0.5c-1.6-3.5-4.7-6.2-5.6-6.9c-7.1-4.1-19.5-2.5-24.4-1.6c-9,1.5-21,5.6-23.5,6.5
			c-1.9,0.7-12.2,4.2-17.5,5.5c-3.1,0.8-5.8,1.6-8.2,2.3c-1.7,0.5-3.2,1-4.6,1.3c-2.3,0.6-13.9,4-35.5,10.5
			c-8.3,2.5-13.7,3.4-13.6,3.4c-2.8,0.3-5.1,0.4-7,0.4c-5.6,0-7.7-0.8-7.7-0.8c0-0.1-0.1-0.9-0.1-0.9l0.1-9.2c0-0.6-0.5-5.6-4.8-7.9
			c-3.5-1.9-7.9-2.4-14.1-2.7c-6.6-0.3-13.7,0.3-17.2,1.1c-6.7,1.5-12,4.4-15.8,8.6c-5.6,6.2-4.8,11.5-4.7,11.7c0,0,0.3,5.4,0.7,9.4
			c0.2,1.5,0.6,2.7,1.2,3.8c-3.5,1.6-9.3,3.9-18.3,6.6c-16.5,4.9-27.8,5.9-27.9,5.9c-2.1,0.2-3.7,2-3.5,4.2c0.3,4.4,3.8,23.8,4.2,26
			c0.2,1.1,1.8,10.8,2.5,13.5c0.7,2.5,2.4,8.1,2.4,8.1c0.1,0.5,1.3,4.7,5.7,6.7c3.4,1.6,9.8,2.5,16.6-0.2c5.7-2.2,7.9-4.9,10.1-7.5
			l3.8-4.4c0,0,3.6-3.2,7.6-1.8c3.7,1.3,6.7,5.5,7.6,7.1c-2.1,0.7-4.8,1.6-6.8,2.1c-3.9,1.1-42,13.3-42,13.3s-14.7,4.7-26.5,7.6
			c-11.7,2.8-18.2,3.8-20.8,3.9c-2.3,0.2-2.8,0.1-2.9,0.1c0,0,0.1-0.2,1.2-2.2c0.1-0.1,0.1-0.3,0.2-0.4c0,0,0-0.1,0-0.1
			c0.3-0.6,0.4-1.2,0.5-1.8c0-0.2,0.1-0.3,0.1-0.5c0-0.3,0.1-0.6,0.1-0.8c0-0.1,0-0.2,0-0.2c0-0.6,0-1,0-1s-0.1-0.3-0.3-0.7
			c-0.1-0.3-0.3-0.6-0.5-0.9c-0.8-1.6-2.2-3.9-4.2-6.2c-0.8-0.9-1.7-1.5-2.6-2c-2.7-1.5-5.3-1.5-5.3-1.5s-6.6-0.9-18.3,4
			c-11.7,4.9-15.8,9-18.2,12.8c-2.4,3.7-0.2,8-0.2,8c2.8,4,8.2,8.7,8.2,8.7l-0.1,0c-3.7,4.2-13.4,8.1-15.7,9
			c-0.3,0.1-0.5,0.2-0.5,0.2s-0.2,0.1-0.6,0.2c-3,1-15.6,5.2-27,6.7c-6.3,0.8-11.9,1.2-16.1,1.4c5.6-5.5,8-11.5,8.1-11.7
			c5.3-13,0.5-25.9-2.3-29.1c-2.7-2.9-8.1-6.9-8.5-7.2c-1.9-1.6-6.5-3.5-12.1-1c0.5-3.2,1.6-7.1,3.1-10.8c2.6-6.2,8.1-17,8.1-17
			c0.3-0.6,8.4-14.3,11.7-23c3.5-9.1,3.5-16.2,3.5-16.5c0-0.9-0.3-1.7-0.8-2.4c0,0-3.8-4.8-5.8-7.5c6.2,1.3,10.7-1.2,11.6-1.8
			c8.5-6.5,13.8-18,14-18.3l7.7-15.5c0.6-1.2,0.5-2.6-0.2-3.8l-6.4-10.4c-0.6-0.9-1.5-1.5-2.5-1.8c-0.8-0.2-2.1-0.4-9.6,2.2
			c-3.5,1.2-6.4,2.4-8.4,3.4l-2.1-3.1c-0.1-0.2-0.8-0.9-0.9-1c-1.8-1.8-5.1-2-10.6-0.8c-6.3,1.5-15.3,6.3-19.5,11.9
			c-2.3,3.1-3.4,5.4-4,6.8c-11.4,9.8-21,14.4-23.1,15.4c-3.8,0.6-6.3,2.4-6.7,2.7c-10.7,9-23.2,23.6-24.8,25.4
			c-0.5,0.5-1,1.2-1.5,2.1c-0.5,0.9-2.1,5.9-1.7,8c0,0.2,0.1,0.3,0.1,0.5c-4.9,6.5-8,10.1-9.7,11.8c-0.5,0-1,0-1.5,0.1
			c-1.9,0.6-5.4,2.7-6.8,3.6c-0.4,0.3-0.8,0.6-1.1,1c-3,4.2-9.9,15.6-12.1,19.3c-0.5,0.3-1,0.6-1.5,0.9c-0.6,0-1.2,0.2-1.7,0.5
			l-5.3,3c-0.6,0.3-1.1,0.8-1.4,1.4C33.2,196.7,16.1,241,7.2,287.8c-0.1,0.6-0.1,1.2,0.1,1.7l0.3,1.2l-1.4,3.1
			c-0.1,0.3-0.2,0.6-0.3,0.9C2,317.2,0,340.3,0,363.4c0,15.1,0.9,30.3,2.5,45.2c0.1,0.6,0.3,1.3,0.7,1.8l1.4,2l-0.9,2.1
			c-0.2,0.6-0.3,1.3-0.2,2c7,53.2,24.5,103.6,51.7,149.9c0.3,0.5,0.6,0.8,1,1.2l0.5,0.4l0.4,1.5c0.1,0.3,0.2,0.7,0.4,1
			c73.2,120.9,201.2,193,342.3,193c100.8,0,197.1-37.6,271.2-106c73.6-67.9,118.9-160.1,127.4-259.5c0-0.6,0-1.2-0.3-1.8l-1-2.5
			l1.4-2.3c0.3-0.5,0.5-1.1,0.5-1.7c0.6-8.8,0.9-17.6,0.9-26.2C800,328.2,795.4,293.4,786.4,259.8z M787.8,314.2
			c0.5-0.5,0.9-1.5,0.8-4.1c1.4,10,2.3,20,2.9,30.1c-0.7,1.5-0.9,4.7-0.9,4.7s-0.5,3.6-1.2,3.6c-0.2,0-0.4,0-0.7-0.2
			c-1-0.5-2.5-2.4-3.6-10.8c-1.6-11.2-1.2-22.9-1.2-22.9s-0.3-1.2,0.4-1.5c0.7-0.3,1.5,0.8,1.5,0.8S786.6,315.4,787.8,314.2z
			 M779.1,262.5c1.7,6.3,3,12.6,4.4,19c-1.9-8-4.1-15.4-5.8-20.8L779.1,262.5z M777.7,260.7c0.5,1.4,0.9,2.9,1.4,4.5
			C778.6,263.6,778.1,262,777.7,260.7L777.7,260.7z M776.5,259.3l0.1,0.2l-1.3-1.4v0L776.5,259.3
			C776.5,259.2,776.5,259.3,776.5,259.3z M760.8,210.2c0.1,0,0-0.1,0.1-0.1c5.9,13.9,11.1,28,15.3,42.2c-0.3,0-0.6,0-1,0.1
			c-0.1,0-0.2,0.1-0.3,0.1c0-0.1,0-0.1,0-0.1s-2.4-7.1-8-21.3c-4.9-12.4-6.3-17.7-6.5-18.9c0-0.2-0.1-0.2-0.1-0.2
			S759.9,210.4,760.8,210.2z M775.4,257.9L775.4,257.9L775.4,257.9L775.4,257.9z M774.9,252.3L774.9,252.3
			C774.9,252.3,774.8,252.3,774.9,252.3C774.8,252.3,774.9,252.3,774.9,252.3z M716.5,139.8c1-0.5,2.1-1.1,2.9-1.8
			c0.3-0.3,0.5-0.5,0.8-0.8c6.7,9.5,12.9,19.3,18.8,29.4c-0.7,0.1-1.3,1,0.2,4.8c0.9,2.4,1,3.2,0.9,3.4c-0.3,0.2-1.5-1.6-1.5-1.6
			C731.4,164,716.6,139.8,716.5,139.8l-1.4-0.9L716.5,139.8z M711.8,141.9c0.2-0.1,0.5-0.2,0.6-0.3c0.2-0.1,0.3-0.1,0.5-0.2
			c0.5-0.2,0.9-0.4,1.3-0.6c0,0,0.1,0,0.3-0.1c0,0,0,0,0,0l0.1,0.1c7.9,12.8,22.1,33.4,22.1,33.4s5.8,7.4,7,7.5
			c1.3,0.1-0.6-5.8-0.6-5.8s-0.6-2.4-0.1-2.7c5.3,9.6,10.2,19.4,14.7,29.3l0,0c0,0-1.1,0.6-1.1,2.6c0,3.9,3.9,12.9,3.9,12.9
			s8.1,20.6,13.2,35c-1.6,0.9-2.6,2.3-6.2,2.9c-4.6,0.7-9.9,2.4-15.1,10.2c-1.6,2.4-2.1,4.9-2.2,7.3c0,0,0,0.1,0,0.1
			c0,0.2,0,0.3,0,0.5c0,1,0,1.9,0.2,2.8c0,0.3,0,0.5,0.1,0.8c0.1,0.7,0.3,1.4,0.5,2.1c0.1,0.2,0.1,0.5,0.2,0.8c0,0,0,0.1,0.1,0.1
			c0.6,2,1.3,3.4,1.3,3.4s2.8,4.6,4.1,6.9c1.3,2.4,8.3,17.2,0.3,28c0,0-4.3,5-11.8,6.7c-6.7,1.5-5-6.3-5.7-10.5c0,0-1-17.7-9.6-27.9
			c-7.6-8.9-21.3,6.9-28.2,12.2c-6.4,4.9-25.1,24.2-51.9,38.2l-1-12.9c0,0-0.7-6.9-4.4-17.7c-7.6-22-15.1-32-15.1-32s-3-6.5-9.6-9.1
			c-1.7-0.7-3.5-1.2-5.7-1.2c-10.3,0-11.1,9.5-11.1,9.5s-2.4,7.5-6.4,9.8c-3.4,2-12.6,7.3-18.8,4.2c-0.9-0.5-1.7-1.1-2.5-1.9
			c-1.2-1.3-2.2-2.7-3.2-4.1c-1.2-1.6-2.2-3.1-3.2-4.8c-3.2-5.6-5.3-11.6-5.8-17.4c-0.8-8.9,2.9-12.5,2.9-12.5s0.7-2.3,12.5-2.3
			c13.2,0,15.6-4.1,15.6-4.1s2.5-2.3,2.3-7.5c-0.2-5.2-2.2-16.3-6-23.3c-0.5-1-1.3-2.1-2.1-3.3c-2.9-4.4-7.2-9.9-11-14.3l-7.1-1.3
			l7.1,1.3c4.6-1.7,10.9-4.2,17.8-7.3c14-6.3,20.6-11.6,27-15.2c0,0,14.1-8.7,22.4-8.5c0,0,1.9-0.1,2.1,2.5c0.2,2.5,0.8,6.3,1.7,8.5
			c0.9,2.2,5.7,14.2,21.2,15.9c1.9,0.2,3.7,0.2,5.4,0.1c0.9-0.1,1.7-0.3,2.5-0.4c0.7-0.1,1.4-0.2,2-0.3c1.2-0.3,2.2-0.7,3.2-1.2
			c0.2-0.1,0.4-0.1,0.6-0.2c1-0.5,1.9-1,2.8-1.6c0.1,0,0.2-0.1,0.3-0.2c3.6-2.4,5.2-5,5.2-5s5.3-8.1-3.8-17.8c0,0-7.5-8-7.7-8.6
			c0,0-0.5-0.7,0.3-1.3c0.2-0.2,0.5-0.3,0.9-0.5c1.3-0.4,10.6-3,19.4-5.8C704.6,144.5,708.7,143.1,711.8,141.9z M663.2,395.1
			c4.1,8.5,13.2,9.3,19.8,7.7c6.6-1.7,8.8-5.3,12.4-13.2c3.6-7.9,5.6-8.5,5.6-8.5s1.5-2.1,8.2-1.3c6.7,0.8,8.1,5.5,8.1,5.5
			s3.9,9.1,3.1,18.7c-0.7,9.6-2.8,13.9-5,17.3c-2.2,3.4-13.7,2.3-13.7,2.3s-19.7-2.2-21.5,21.5c-1.8,23.7,6.2,40.1,6.2,40.1
			c2.9,6.3,5.8,9.6,8.3,11.3c2.4,1.8,4.7,4.1,4.7,4.1s0.4,0.4,1,1.2l-0.1,0c-14,11.4-18.2,15-29.4,23c0,0-12.8,9.5-26.7,17.1
			c-14,7.5-30.5,6.6-30.5,6.6s-4.4-0.5-2.3-3.7c2.1-3.2,4.9-11.1,6-15c1.1-4,3.2-14.1-4.9-17.4c-8.1-3.2-23.5,1.5-23.5,1.5
			s-35.1,9.4-49.5,25.1c-13.9,15.3-2.2,22.1-2.2,22.1s5.5,3.8,10.8,5.7c5,1.8,4,3.4,2.8,4.3c0,0-15.7,10-34.3,15.3
			c0,0-25.4,7.8-50,9.4c-24.2,1.6-34.6,2.2-34.9,2.2c-2.6-5.2-5.4-9.8-5.4-9.8s-2.9-4.4-4.3-10.6c-1.2-5.2-1.3-11.7,2.4-18.1
			c8.1-14,21.2-18.2,21.2-18.2s11.7-2.6,23.3,0.1c11,2.5,16.6-1.7,16.6-1.7s3.8-1.6,6.5-8.2c0.2-0.6,0.4-1.3,0.6-1.9
			c0.2-0.6,0.4-1.1,0.6-1.7c0.4-1.4,0.7-2.9,1-4.6c2-13.4-0.1-38.4-18-43.3c-17.9-4.9-27.4,4.4-27.4,4.4s-9.6,10.6-12.8,12.2
			c-3.1,1.6-8,4.4-8,4.4s-6.7,4-11.3,5c-2.8,0.6-12.4-11.9-14.6-22.6c-0.1-0.7-0.3-1.5-0.4-2.2c-0.9-9-2.6-16.4-2.5-32.3
			c0-2.2,0.1-4.7,0.2-7.3c0,0,0-0.1,0-0.1c3.2-0.2,6.4-0.3,9.6-0.5c27.8-1,41.5-4.3,56.3-7.6c14.7-3.3,35.5-15.4,38.6-17.7
			c2.7-2,8-4.4,10.1-11.8c0.2-0.8,0.4-1.7,0.5-2.6c0-0.3,0.1-0.5,0.2-0.8c0,0,0-0.1,0-0.1c1.3-10-10.6-16.8-10.6-16.8
			s-9.5-5-11.5-7.2c-1-1.1-1-2.2-0.8-3c0.2-0.8,0.6-1.3,0.6-1.3s5.3-11.5,22.5-18.3c17.1-6.8,28.7-8.6,35.9-9.4
			c7.2-0.8,9.7,1.8,10.7,3.1c1,1.2,1,3.8,0.2,6.4c-0.8,2.4-3.5,8.1-5,10.8c-1.5,2.8-4.1,9.4-2.4,12.6c1.6,3.1,6.5,4.6,12.9,3.5
			c6.4-1.2,23.2-5.9,38-12.1c14.8-6.1,39.4-18.2,39.4-18.2s0.1,0,0.2-0.1l0-0.1c0,0,0,0,0,0l0.6-5.5c0,0,0,0.1,0,0.1l-0.6,5.6
			C649.5,366.4,659.2,386.7,663.2,395.1z M703.3,501.9l-0.2,4.9c1.6,4.5,2.8,11.5,1.1,21.9c-2.2,13.8-5.5,21.8-7.7,25.9
			c-0.4,0.7-0.8,1.4-1.2,2.1c-0.2,0.2-0.2,0.3-0.4,0.5c-0.4,0.5-0.8,1-1.1,1.5c-0.4,0.5-1.2,1.4-2.1,2.5c-0.5,0.5-0.9,1-1.4,1.4
			c-0.2,0.2-0.4,0.3-0.5,0.5c-0.5,0.5-1.1,1-1.7,1.6c-0.2,0.2-0.2,0.3-0.4,0.4c-3,2.5-6.7,4.9-10.6,5.3c-8.7,1-18.1,0.9-26.9,9.3
			c-0.1,0.1-0.3,0.2-0.4,0.3c-0.3,0.3-0.6,0.6-0.9,0.9c-0.2,0.2-0.3,0.3-0.5,0.5c0,0.1-0.1,0.1-0.1,0.2c-0.9,0.9-1.7,2.1-2.5,3.4
			c-7.1,10.6-5.5,22.4-5.5,22.4s0.9,8.9,10.5,6.5c9.5-2.4,19.3-9.8,26.7-15.6c7.4-5.8,2.8,2,2.8,2c-6.5,12.7-18.8,25.3-18.8,25.3
			s-4.3,3.7-13.7,17.1c-2.5,3.5-4.5,6.5-6.2,9.3c0,0,0,0,0,0s0,0-0.1,0.1c-9.7,5.2-23.6,12.1-32.3,15.7c0.4-0.2,0.9-0.4,1.4-0.5
			c-0.5,0.2-0.9,0.4-1.4,0.6c-4.6,1.9-8.3,3.2-10.9,3.9c0.1,0,0.1,0,0.2-0.1c-2.8,0.8-4.5,1-5,0.7c0,0-0.1,0-0.1,0
			c-0.1-0.1,0-0.2,0-0.3c0,0,0-0.1,0-0.1c1-1.5,3.6-3.6,3.6-3.6s3.1-3.1,3.1-6.3c0,0,0.2-1.1-1.2-1.9c-1.4-0.8-4.5-1.2-11.3,0.2
			c-3.3,0.7-6.5,1.6-9.5,2.6c-0.1,0-0.2,0-0.2,0.1c-4,1.4-7.7,2.8-10.4,4c0.1,0,0.1,0,0.1,0c0,0,0.3-0.1,0.8-0.3
			c-3.8,1.7-6.3,3-6.3,3s-6.8,3.1-11.5,6.8l0.2-0.2c-0.2,0.1-0.3,0.3-0.5,0.4c-0.6,0.5-1.1,0.9-1.6,1.4c-0.1,0.1-0.2,0.2-0.3,0.3
			c-0.6,0.6-1.1,1.2-1.5,1.9c-0.1,0.1-0.1,0.2-0.2,0.3c-0.3,0.6-0.5,1.2-0.6,1.8c0,0,0,0.1,0,0.1c0,0.6,0.2,1.2,0.7,1.8
			c0,0,0.9,1.5,4.9,2.8c0.5,0.1,0.7,0.3,0.8,0.5c0,0.1,0,0.1,0,0.2c0,0.1-0.1,0.2-0.1,0.4c-0.1,0.1-0.2,0.2-0.3,0.4
			c-0.1,0.1-0.2,0.1-0.2,0.2c-0.2,0.2-0.5,0.3-0.8,0.5l0.1,0c-2.3,1.3-6.6,2.6-6.6,2.6c-10.6,3.5-18.8,5-29.1,7.2
			c-10.7,2.2-19.9,4.2-26.1,5.6l0,0l0.1,0c-0.7-2.5-1.6-5-2.7-7.4c-0.1-0.3-0.3-0.6-0.4-0.9c-0.5-1.1-1-2.1-1.6-3.1
			c-0.1-0.2-0.2-0.4-0.3-0.6c-0.6-1.1-1.2-2.1-1.8-3.1c-0.3-0.4-0.5-0.8-0.7-1.2c-0.3-0.4-0.5-0.8-0.8-1.2c-0.7-1.1-1.3-2-1.7-2.6
			c-2.4-3.9-6.5-6.1-18.6-4.1c-12.1,2-26.3,8-26.3,8s-14.7,7.7-25.6,6.3c-2.8-0.4-4.9-1.3-6.7-2.6c-5.2-3.9-6.5-10.8-6.4-13.4
			c0.1-3.5,2.4-6.5,8.1-8.7c5.7-2.2,19.2-5.3,38.7-6.3s26.9-13.7,26.9-13.7c2.2-3.2,6-10-0.4-15.8c-0.9-0.8-2.1-1.6-3.4-2.4
			c-6.8-3.8-9.5-4.7-11.8-5.7c-0.9-0.4-1.7-0.8-2.6-1.5c-0.1-0.1-0.1-0.1-0.2-0.2c-0.2-0.1-0.4-0.2-0.5-0.4
			c-0.4-0.3-0.8-0.5-1.3-0.9c-1.3-1-2.7-2.1-4-3.2c-3.9-3.4-7.6-7.5-9.2-12.6c-0.2-0.7-0.5-1.5-0.8-2.3l-3.9-2.6l-2.6-1.7l0,0v0l0,0
			l0,0l0,0h0l0,0v0v0v0l0,0c0,0,0,0,0,0l0,0l0,0l0.5-0.4l-0.5,0.4l0.1,0.1c0,0,0,0-0.1,0l6.5,4.3c5.7-0.5,13.1-1,19.7-1.3
			c13.1-0.6,33.7-3.7,45.7-6.3c12-2.7,30.1-8.2,43.4-15.2c13.4-6.9,14-11.8,14-11.8s1-1.4,0.4-3.5c-0.4-1.2-1.3-2.7-3.4-4.3
			c-5.6-4.1-8.1-3-13-8c-0.6-0.6-1-1.3-1.2-1.9c-1.5-4.8,5.5-10.6,5.5-10.6s4.8-6.7,31.2-16.9c26.5-10.2,30.9-6.8,32.3-5.6
			c0.3,0.3,0.6,0.7,0.8,1.2c0.6,1.6,0.6,4.1,0.2,5.9c-0.5,2.5-3.8,11.3-5.6,16c-0.9,2.3-1.5,5.1-0.9,7.5c0.5,2.3,2.1,4.2,5.7,5
			c7.2,1.5,17.2-0.1,26.6-3.4c22.5-8,29.2-17.8,66.3-44.8c0.1-0.1,0.2-0.1,0.2-0.2L703.3,501.9C703.3,501.9,703.3,501.9,703.3,501.9
			L703.3,501.9C703.3,501.9,703.3,501.9,703.3,501.9z M321.2,637.7c5.9,6.7,12.2,9.6,12.2,9.6s3.7,1.6,3.6,2.6
			c-0.1,1.3-0.1,2.4-2.9,4c0,0-10.8,6.3-31.9,6.7c-21.1,0.3-30.4,0.2-36.6-5.4c-5.1-4.6,1.3-14.3,1.3-14.3s2.6-4.8,0-11.3
			c-2.6-6.5-17.2-6.6-17.2-6.6l-20.3-1c-24-0.6-55.8-3.3-69.9-5.1c0,0-0.1,0-0.2,0v0l-0.4-0.6c0,0-14.6-26.2-13-35.9
			c0,0,0.4-4.9,6.6-8c0.9-0.4,1.9-0.8,3-1.2c6.3-1.9,5.5,4.2,24.2,7.6c0,0,9.4,2.5,15.7-1.5c1.9-1.2,3.6-3.1,4.6-5.8
			c4.2-11.7-4.4-26.4-4.4-26.4s-11.3-20.6-25.2-21.4h0l0,0c-0.1,0-0.2,0-0.2,0c-7.1-0.3-5.3,4.6-16.3,7.2c0,0-14.9,1.5-19.6-7.5
			c-5.7-10.8-7.9-23.1-7.9-31.2c0-0.3,0-0.5,0-0.7c0.1-5.1,0.3-6.9,0.6-8.3c0.1-0.5,0.3-1.1,0.4-1.8c0.2-0.8,0.5-1.9,0.9-3.2
			c0.4-1.4,0.8-3.1,1-5.3l0-0.1c6.3-0.7,16.4-1.8,28.1-3.1c19.6-2.1,32.8-4.2,45.1-2.4c12.2,1.8,16.1,11.4,16.1,11.4
			s0.2,0.6,0.1,1.4c-0.2,0.8-0.6,1.8-2,2.7c-2.7,1.8-5.8,4.3-7.4,6.9c0,0,0,0,0,0.1c0,0,0,0,0,0c-0.2,0.3-0.4,0.7-0.5,1.1
			c0,0,0,0,0,0c-1.3,3-2.1,8.1,1.8,14.7c4.4,7.5,16.6,12.4,27,11.1c10.4-1.2,25.9-5.2,35.1-7.6c7.5-2,14.4-5.2,17.8-10.1
			c1.2-1.6,1.9-3.4,2.2-5.4c1.2-7.8-11.9-17.8-11.9-17.8s-6.3-4.7-7.1-5.8c-0.2-0.3-0.2-0.5-0.2-0.7c0.2-0.5,0.9-0.8,0.9-0.8
			s7.4-1.8,10.5-3.2c3.1-1.5,11.8-5,26.1-9.5s43.6-9.7,43.6-9.7s16.2-2.6,36.4-4.2l0.1-0.1c0,0,0,0,0.1,0l2.5-2.9l0.8-0.9l-3.3,3.8
			c-0.1,1.9-0.1,3.9-0.2,5.9c-1.1,30.1,5.6,45.6,5.6,45.6c3.8,8.3,7.9,14.2,13.6,18c5.6,3.8,13.2,1.2,15.7,0
			c2.5-1.2,9.3-4.4,15.1-8.1c5.8-3.7,5.6-5.3,12.7-11.8c7-6.5,16.1-4.7,16.1-4.7s8.6,0.2,13.5,10.2c4.9,10,3.9,24.2,2.7,29.3
			c-1.2,5.1-3.5,8.5-8.3,7.6c-4.8-0.9-12.8-1.7-15.7-1.8c-2.9-0.1-11.1-0.4-18.6,1.6c-7.3,1.9-17.1,7.1-26.5,22.4
			c-7.3,11.8-3.7,23.4-2,28c1.3,3.6,4.9,8.6,8.1,14.7l5.9,2l0,0l-5.8-1.9c-10,1.2-26.8,3.6-43.5,7.6c-20.4,5-39.8,8.9-53.6,17.8
			C325.6,624.2,315.3,631.1,321.2,637.7z M159.2,616.9l0,1.1c0,0,0,0,0,0v0l0,0v0l0,0L159.2,616.9z M128.1,467.4L128.1,467.4
			L128.1,467.4C128.1,467.4,128.1,467.4,128.1,467.4z M372.4,302.6c-1.5-10.9-1.9-13.4-11.5-46.3c12.6-1.7,22.8-3.3,34.4-5.6
			c7.8-1.5,16.2-3.3,26.4-5.7c0,0,23.6-4.2,28.6-12.8c2.9-5,8-11.9-0.3-18.9c0,0,0,0,0,0v0c0,0-0.9-1.3-6.1-2.4
			c-2.2-0.5-4.1-0.9-6-1.5c-2.5-0.8-5-1.8-7.5-3.6c-4.4-3.1-4.3-6.8-4.3-6.8s-0.4-3.5,6.7-7.4c0,0,3.7-2.7,11.1-5.8
			c2.5-1,5.3-2.1,8.6-3.2c13.1-4.1,28.3-2.3,28.3-2.3s6.4,0.7,5.3,5c-1.1,4.3-4.7,11.5-4.8,15.2c-0.1,2.2,0,4.7,1.6,6.9
			c0.5,0.7,1.2,1.4,2.2,2.1c0.9,0.7,2.1,1.4,3.5,2c4.5,1.9,10.3,2.2,14,2.2c2.2,0,3.7-0.1,3.7-0.1s10.7-0.5,28.3-6.2
			c11-3.6,22.1-7.4,28.8-9.8c3.9-1.4,6.4-2.3,6.7-2.4c0.1,0,0.1,0,0.2-0.1l0,0.1c15.4,15.1,18.2,33.6,18.2,33.6s2.1,7.3-2.2,7.8
			c-3.7,0.5-12.5,0.5-12.5,0.5s-3.3,0.3-8.7,1.4c-5.4,1.1-8.8,6.8-9.5,10.8c-0.8,4-3.1,14.8,6.1,31.9c9.1,17.1,20.7,16.3,20.7,16.3
			c10-0.9,13.1-2.6,18.9-6.6c5.7-3.9,8.3-12.4,8.6-14.1c0.3-1.7,1.1-3.3,2.4-3.3c1.4,0,0.9,0,4-0.4c3.1-0.4,5.4,1.8,7.9,6.9
			c1.6,3.3,10.4,17.8,13,26.4c2.5,8.6,4.7,17.1,5,24.9c0.1,3,0.5,6.5,1,9.6l2.5,3.5c0,0,0,0,0,0l0,0l-2.5-3.7
			c-12.9,6.4-42.1,20.6-61.1,27.3c0,0-14.6,5.9-20.5,6.1c0,0-1.3,0-0.3-1.4c1-1.4,2.1-2.5,3.9-5.7c1.8-3.2,5-10.5,5-18.1
			s-8.7-14.9-20.8-13.6c-12.1,1.3-23.7,4.7-37.7,10c-14,5.4-26,16.8-27.6,26.2c-1.6,9.4,8.6,14.9,8.6,14.9s11.5,5.8,13,9
			c1.5,3.1,0.4,6.1,0.4,6.1s-1,3.1-6.1,6.1c-5,2.9-18.8,10-18.8,10s-17.1,9.5-43.2,11.7c0,0-23.8,2-37.4,2.7c-0.2,0-0.3,0-0.5,0
			c0.6-17.5-1.5-31.1-5.2-41.2c-1.2-3.4-2.6-6.4-4.1-9c-6.2-11-16.4-16.8-21.5-19.3c-5-2.5-16.7-3.6-24.6-0.7
			c-7.9,2.9-9.6,5.3-12.5,10.3c-2.9,5-6.5,4.7-6.5,4.7s-10.6,0.2-14.4-15.7c-0.1-0.3-0.2-0.5-0.3-0.8c-0.5-2.5-0.8-4.6-1.1-6.7
			c0-0.5-0.2-1-0.2-1.4c-0.2-1.4-0.2-2.5-0.2-3.8c0-1-0.2-2-0.2-2.9c0.1-12.1,4.5-16.4,4.5-16.4s2.5-3.7,10.6-4.8
			c8.2-1.1,13.4,0.9,19.7,2.5c6.3,1.6,11,0.9,18.8-2.9c4.5-2.2,7.5-5.2,8.9-9.5C372.8,311.2,373.1,307.4,372.4,302.6z M503.7,71.2
			c5.5-1.4,16.1-4.9,18.4-5.8c2.2-0.9,13.7-4.7,22-6.1c8.4-1.5,15.9-1.2,18.7,0.3c0.4,0.4,2.3,2.2,3,3.8c1,2.3,3.9,7.8,9,10.3
			c4.2,2.1,7.3,3.3,16.6,2.5c13.3-3.3,14.8-10.7,13.4-13.3c-1.7-3.3-6.9-6.7-6.9-6.7s-7-4.5-8.5-6.6c-0.2-0.2-0.2-0.4-0.2-0.6
			c3.7-0.5,8-1.1,12.9-2.4c2.4-0.6,4.3-1.3,5.7-2l2.1,0.6c4.1,3.3,27.8,22.3,35.9,27.6c1.7,1.1,3.9,0.8,5.1-0.8l0.2-0.2
			c1,0.8,2.1,1.7,2.4,2.1c0,0,5,0,7.6,2.5c3.3,2.7,12.5,10.8,14.8,15.3l1.2,3.6c-0.6,1.3-0.5,2.8,0.3,4c0.3,0.4,7.4,10.5,16.3,20.3
			c0.9,1.2,8.4,11.3,12.5,15.7c-2.2,0.9-5.3,2-9.4,3.1c-8.6,2.3-17,6.2-17,6.2s-6.9,2.2-4.3,7.9c0.3,0.5,0.5,0.9,0.8,1.4
			c0.1,0.4,0.3,0.8,0.6,1.2c0,0,0.1,0.1,0.2,0.2c2.4,3.7,4.9,5.6,4.9,5.6s0.4,0.4,1,1.1c0.3,0.3,0.7,0.8,1.1,1.2
			c0.2,0.2,0.3,0.4,0.5,0.6c0.6,0.7,1.2,1.6,1.7,2.5c0.8,1.3,1.4,2.8,1.5,4.1c0.2,4.1-1.5,5.9-5.9,8.4c-4.4,2.4-8.4,2.9-8.4,2.9
			s-10.4,1.9-15.5-3c-5.2-4.9-6.1-12.9-6.1-12.9s-0.4-6.8-8.9-9.7c-8.6-2.9-19.1,3.3-19.1,3.3s-8.3,4.4-17.1,10.1
			c-8.8,5.7-25.6,12.7-36,16.4l-1.2,5.4v0c0,0,0,0,0,0l0,0l0,0l0,0h0h0v0h0h0v0l0,0l0.6-2.6l0.6-2.8c0,0,0,0,0,0v0
			c-0.7-0.7-2-2.1-3.6-3.8c-4-4.4-10.1-11.5-15.6-18.1c-5.4-6.5-10.3-12.5-12.1-15.1c-4.4-6.3-5-7.7-5.8-9.8c-0.2-0.5-0.2-1.2-0.1-2
			c0.3-2.3,1.9-5.4,3.3-7c1.9-2.2,4.1-2.6,8.6-1.6c4.5,1,7.5,3,14.6,0.7c7.2-2.3,7.5-7.7,8-13.2c0.4-4.1-3.2-11.7-7.3-17.6
			c-1.4-2-2.8-3.8-4.1-5.2c-5.3-5.6-12.8-6.5-18-6.2c-5.2,0.3-8.1,4.1-11.1,5.7c-3,1.7-8.6,3.3-11.1,2.2c-1.3-0.6-2.9-1.1-4.7-2.5
			c-1.8-1.4-3.8-3.5-6-7.3c-2.8-5-5.2-9.5-6.8-12.5C500.4,72.1,502,71.7,503.7,71.2z M351.8,183.1c1.2-0.6,3.4-1.5,6.3-1.9l5.9-0.3
			c1.2,0.1,2.5,0.2,3.9,0.3l1.4,0.1c2.7,0.2,6.4,0.5,10.8-1.3c0,0,0.1,0,0.1,0c0.1,0,0.2-0.1,0.4-0.2c0.8-0.3,1.6-0.6,2.3-1
			c3.3-1.8,12.3-6.8,11.7-16.8c-0.6-10-8.6-21.9-15.2-26c-1.6-1-3.4-1.7-5.2-2.1c-5.4-1.1-11.2,0.5-14.7,3.1c-4.7,3.5-6.6,8-9.4,9.4
			c-2.8,1.4-6.8,4.6-11.1,3.7c0,0-0.1,0-0.1,0c-4.3-1-4.5-10.7-6.4-21.5c-0.7-4.4-1.4-8-1.9-10.9c-0.2-1.2-0.4-2.3-0.6-3.2
			c5-0.8,13.4-2.3,24.2-5.5c18-5.3,24.2-9.5,24.8-9.9c0.8-0.6,1.2-1.5,1.4-2.5c1.9-1.2,3.6-2.4,4.9-3.7c0,0,4.9-2.3,0.2-6.8
			c0,0,0,0,0,0l0,0c-4.7-4.5-7-5.9-7-5.9s-0.8-0.4-1.2-1.4c-0.1-0.3-0.2-0.6-0.2-1c0.4-0.8,1-1.6,1.8-2.6c2.7-3,6.6-5.1,11.6-6.2
			c2.6-0.6,9-1.2,15.2-1c4.8,0.2,7.7,0.6,9.6,1.3c-0.3,2.8-0.7,6.7-0.6,7.9c0.1,1.2,0.2,3.9,3,6.4c0.6,1.6,1.6,3,3.3,3.8
			c1.2,0.7,6.1,2.9,19.8,1.5c0.2,0,5.9-1,14.8-3.7c21.2-6.3,33-9.8,35.2-10.4c0.2,0,0.4-0.1,0.6-0.2c1.1,2.2,2.9,5.5,5.9,10.7
			c7,12.1,19.2,16.7,24.5,16.2c4.6-0.5,12.6-2.6,15.6-6c3.1-3.4,6.2-3,6.2-3c6.7-0.4,8.4,5.2,13.9,13.1c5.5,7.9,2.1,14.1,2.1,14.1
			c-3.6,4.8-7.7,3.9-11.5,3.1c-2.8-0.6-3.1-0.9-6.4-1.5c-10.1-1.3-13.5,6.1-13.5,6.1c-7.3,11.2,1.3,19.4,1.3,19.4
			s19.2,25.7,33.8,41.6c-11,3.8-25.4,8.6-25.4,8.6s-19.5,7.2-32.3,9c-12.8,1.7-15.7-0.1-17.4-1.9c-1.8-1.7,0.3-7.9,0.3-7.9
			s5.2-10.7,2.7-16.2c-2.5-5.6-19-7-19.3-7c-0.3,0-18-2.1-34.6,7.2c-14.7,8.3-16.7,12.8-16.7,12.8s-4.7,7.3,0.9,14.5
			c6.3,8.2,14.6,8.9,14.6,8.9s7.9,0.6,9.8,2.9c1.9,2.3,0.6,4.9,0.6,4.9s-2.6,7.2-17.3,10.2c0,0-24.7,7.2-70.7,13.8
			c-9.2-33.2-9.8-54.1-9.8-54.1C348.2,187.7,349,185,351.8,183.1z M199.4,283.9c0,0,3.7,0.5,3.1,1.8c-0.5,1.1-3.3,3.2-3.3,3.2
			s-1.1,0.6-5.1,5.2c-4,4.6-5.2,9-5.4,12.9c0,0.5,0,1.1,0.2,1.8c0.9,4.9,5.7,14.1,18.6,16.8c14.8,3.1,31.7-2.6,31.7-2.6
			s11.1-2.4,21.6-13c4.8-4.8,5.4-10,4.6-14.4c-1.1-5.6-4.5-9.8-4.5-9.8s-1.7-2.4-5-3.4c0,0-0.8-0.2-0.9-0.7c0-0.2,0-0.4,0.3-0.6
			c0.5-0.6,1.5-2.3,3.9-4.1c1.5-0.9,3.7-1.9,6.7-3c7.8-2,30.9-9.3,85.9-16.6l0,0c0,0.1,4,16,7,26.2c3,10.3,4.4,20.5,4.8,22.6
			c0.4,2.1,0.3,5.9-2.5,8.2s-9.6,4.2-11.1,4.4c-1.5,0.2-4.2-0.3-7.7-1.6c-3.6-1.2-7.2-1.5-7.2-1.5s-8.6-1.5-17.8,1.3
			c-9.2,2.8-16.1,12.2-16.7,23.9c-0.5,11.8-0.4,17.7,4.2,28.1c4.6,10.4,12.9,16.3,19.1,16.5c6.3,0.1,11.4-3.1,15-8.2
			c3.6-5,4.6-5.8,4.6-5.8c4.2-2.4,15.1-3.4,20.6-1.3c5.5,2,15.6,8.3,21.1,20.8c4.5,10.1,5.9,21.4,5.7,41.7l4.5,3.5l0,0l-4.6-3.5
			c-12.7,1.1-27.5,2.8-27.5,2.8s-33.3,4.7-63.9,14.2c-25.9,8-30.8,12.4-30.8,12.4s-5.5,4.6-0.9,11.3c0,0,2.6,4.2,8,8.4
			c5.3,4.2,9.6,8.2,9,10.2c-0.6,2.1-2.2,3-2.2,3s-7.5,6.6-38,11.8c0,0-19.7,3.8-25.7-2.1s-3.4-9.9-3.4-9.9s0.4-1.3,4.8-4.1
			c0,0,7.4-4.6,5-13.4c-2.4-8.8-16.5-19.8-31.9-19.7c0,0-17.9,0.1-63.7,5.9c0,0-0.1,0-0.1,0c0-2,0-4.1-0.2-6.4
			c-0.7-12.9-1.6-32.8-3.4-44.4c-1.7-11.6-4.9-29.5-15.5-30c0,0-5.2-0.4-12.7,6.9c-6.9,6.6-13.1-5.5-13.4-12.9
			c-0.4-8.7,1-17.5,3.2-21.7c0.5-1,1.3-1.8,2.2-2.5c2.6-1.8,6.2-1.9,7-1.8c1.1,0.1,4.3,1.3,8.1,3.7c2.9,1.8,6.5,2.2,9.5,1
			c1-0.4,1.9-1,2.7-1.7c3.1-3.1,7.4-6.7,9.1-20.2c1.7-13.5,1.7-27.6,0.1-44.4l0-0.1c3-0.5,6.9-1.2,11.3-1.9
			c4.9-0.8,10.5-1.5,16.4-2.1C172.3,283.2,191.4,282.9,199.4,283.9z M69.5,158.4c0.6-0.5,1.6-1.1,2.2-1.3c0.9-0.3,1.7-0.9,2.2-1.7
			c0.1-0.2,8.4-14,12-19.3c1.2-0.7,2.4-1.4,3-1.8c0.3,0.1,0.7,0.2,1,0.3c1.1,0.1,2.2-0.2,3-0.9c0.4-0.4,4.4-4,13.7-16.5
			c0.7-0.8,1-1.9,0.8-3c-0.1-0.7-0.4-1.4-0.8-1.9c0.2-1,0.6-2.3,0.9-3c0.1-0.1,0.1-0.1,0.2-0.2c0.1-0.2,13.3-15.6,23.8-24.6
			c0,0,1.3-0.9,3.4-1.2c0.4,0,0.7-0.1,1-0.3c0.5-0.2,12.2-5.1,26.4-17.6c0.6-0.5,1-1.3,1.2-2.1c0,0,0.5-1.8,3-5.2
			c2.1-2.7,6.7-5.8,11.2-7.6c-1.5,1.3-3.3,3-5.7,5.5c-2.4,2.5-3.2,4.1-3,4.9c0.2,0.8,1.4,0.8,2.9,0.3c0.8-0.3,1.8-0.6,3-1.2
			c0,0,0.1,0,0.1,0c0,0,0,0,0,0c3-1.3,7.4-3.4,13.7-6.6l0.3,0.4c1.1,1.7,3.4,2.2,5.1,1.2c0,0,2.8-1.5,6.9-3.1
			c-2.4,5.1-6.5,13.2-11.2,19c0,0-2.9,4.3-5.2,3.2c-2.2-1-4.9-1.1-7.1-0.7c-2.2,0.5-9,2.7-15.1,11c-6.1,8.3-6.9,14.5-3.6,16.3
			c3.3,1.9,8.1-0.6,11-3.2c2.2-1.9,3.8-3.1,4.9-3.5c0.4,0.7,0.9,1.3,1.6,1.7c0,0.5-0.1,1-0.1,1.3c-0.2,0.7-1.2,10.6-12.6,30.4
			c-2.9,5-6.6,12.3-8.3,15.9l0,0c0,0,0,0,0,0c-18.5,3.4-32.4,7.7-37.1,9.5c-4.7,1.8-4.8,0.6-4.8,0.6c-0.7-0.8-0.2-2.2,0.5-3.7
			c0.5-0.9,1-1.8,1.5-2.5c0.7-1,1.3-1.7,1.3-1.7s5.1-6.9,7.1-13.3c2-6.4-6.9-5.5-6.9-5.5c-5.9,0.9-10.1,3.7-15,9.6
			c-3.8,4.6-6.1,10.8-6.9,14.1c-0.6,2.1-1.5,4-1.5,4s-0.7,1.3-3.5,2.5c-3.2,1.4-9.5,3.1-9.5,3.1s-4.2,0.3-7.2-1.2
			c-1-0.5-3-0.3-4.6-0.1C69.1,158.6,69.3,158.5,69.5,158.4z M63.8,163C63.8,162.9,63.8,162.9,63.8,163l0.1-0.1
			C63.9,162.9,63.9,162.9,63.8,163L63.8,163l-1.2,1.9C63,164.1,63.5,163.5,63.8,163C63.8,162.9,63.8,162.9,63.8,163z M37.2,214.3
			c0,0.2-0.1,0.2-0.1,0.4c-0.5,1.6-0.6,2.6-0.6,2.6c0,0.8,0,1.3,0.1,1.7c0.1,0.5,0.3,0.7,0.8,0.7c0.3,0,1-1,1.2-0.5
			c0.1,0.3,0.1,1.2-0.3,3.3c-0.7,3.6-4.1,13.3-5.4,17.2c-1.3,3.9-2.8,6.6-3.8,6.4c-0.3-0.1-0.5-0.3-0.7-0.6
			c-0.3-0.5-0.3-1.2-0.3-1.2s0-0.6-0.3-1c-0.2-0.4-0.5-0.6-1-0.1C29.8,233.4,33.3,223.8,37.2,214.3z M24.1,251.3L24.1,251.3
			c0-0.1,0.4-1,0.7-1.5c0.2-0.4,0.5-0.4,0.4,0.8c-0.1,2.6,1.5,2.8,1.5,2.8c1-0.2,2.2-1.3,3.3-3.2l0,0c0,0,0.1-0.1,0.1-0.2
			c0.5-0.8,0.9-1.7,1.4-2.7c0.1-0.3,0.2-0.6,0.4-0.9c0.4-0.8,0.7-1.7,1.1-2.6c0.2-0.4,0.3-0.8,0.5-1.2c0.3-0.9,0.7-1.8,1-2.8
			c0.2-0.5,0.3-0.9,0.5-1.4c0.3-0.8,0.6-1.7,0.9-2.6c0.2-0.6,0.4-1.1,0.6-1.7c0.2-0.5,0.3-0.9,0.4-1.4c0.3-1.1,0.7-2.1,1-3.1
			c0.2-0.8,0.4-1.5,0.6-2.2c0.2-0.8,0.4-1.5,0.6-2.2c0.2-0.7,0.3-1.4,0.5-2c0.3-1.2,0.5-2.2,0.8-3.2c0.1-0.5,0.2-1,0.3-1.5
			c0.1-0.6,0.3-1.2,0.4-1.7c0-0.2,0.1-0.4,0.1-0.6l0,0c0.3-1.6,0.5-2.7,0.5-2.9c0-0.8-0.4-1.5-1.2-1.1c-0.8,0.4-1,0.1-1,0.1
			c0-0.2,0-0.5,0.1-0.8c0,0,0-0.1,0-0.1c0.5-2.5,2.7-7.9,2.7-7.9c1.2-2.9,2.4-5.8,3.6-8.6c0.1-0.3,0.2-0.5,0.3-0.8
			c0.6-1.3,1.2-2.6,1.8-3.9c0-0.1,0.1-0.2,0.1-0.2c4.8-9.9,9.8-18.2,13.4-23.7c0.6-0.1,0.7-0.1,1.9-0.4c0,0,3.1-0.5,8.6,0.9
			c7.1,1.9,16.1-3.9,16.1-3.9s0.1-0.1,0.3-0.2c0,0,0.1,0,0.1-0.1c0.2-0.1,0.5-0.3,0.8-0.6c0.1-0.1,0.2-0.1,0.3-0.2
			c0.3-0.2,0.7-0.5,1.1-0.8c0.1-0.1,0.3-0.2,0.4-0.4c0.4-0.3,0.8-0.6,1.2-1c0.1-0.1,0.2-0.2,0.3-0.3c0,0,0,0-0.1,0
			c1.9-1.8,4-4.2,5.4-7.2l2.8-7.8c0,0,2.3-7.6,8.6-10c0,0,2.5-1.3,6.5-1.4c2.5,0,3.1,1.1,3.1,1.9c0,0.5-0.1,0.9-0.1,0.9
			s-0.4,1.8-4.6,7.1c-4.1,5.3-5.2,9.3-5.2,9.3s-1.4,3.2-0.4,5.5c0.3,0.8,0.9,1.5,1.9,1.9c0,0,1.9,1.1,7.3-0.7
			c5.4-1.8,23.5-6.5,34.5-8.2l0.1,0l0,0c-2.1,5.9-4.7,15.1-3.7,20.3c1.6,7.9,9,7.9,9,7.9s1.7,0.1,4.1-0.5c0.2,0.1,0.2,0.2,0.4,0.3
			c1.3,0.4,3.9,0.5,8.5-1.8c0.4-0.2,0.6-0.2,1-0.3c2.7,2.5,3.4,9.8,3.4,11.3c0,2.1,0,13.4-7.9,19c0,0-3.2,2.4-7.6,2.4
			c-4.5,0-7.4-1.3-7.4-1.3s-7.6-2.1-12.4,0.6c-4.7,2.8-10.3,8.5-14.7,16.9c-4.4,8.3-8.1,23.2-7.9,34.2c0.2,8.6,1.4,16.8,2.3,22.4
			l5.1,3.4c0,0,0,0,0,0v0h0v0l-5.2-3.4c0,0-17.8,4.7-37.9,4.6c-14.1-0.1-13.7-7.5-11.9-12.3c0.2-0.7,0.5-1.3,0.8-1.9
			c0.1-0.2,0.2-0.3,0.2-0.4c0.2-0.5,0.5-0.9,0.7-1.2c0.2-0.4,0.4-0.6,0.4-0.6s5-8.7,5.8-13.7c0,0,1.7-13.6-11-12.7
			c-12.8,0.9-15.3,12-15.3,12s-0.9,6.2-0.7,10.8c0.2,4.6,0,14.3-5.8,19.9c-5.7,5.5-11.9,3.9-11.9,3.9s-10.3-4.5-12.4-5.6
			c-1.6-0.8-3.1-0.9-4.5-0.7C18.2,272.8,20.9,262,24.1,251.3z M12.2,409.7l-2.1-2.9c-1.6-14.3-2.4-28.9-2.4-43.3
			c0-22.5,1.9-45,5.7-66.9l1.8-3.9c0.2-0.4,0.2-0.8,0.3-1.1c1.7,0.3,3.2,1.1,3.2,1.1s8.8,4.7,12.7,5.6c3.9,0.8,6.8-0.5,9.4-2.3
			c0.5-0.4,1.1-0.9,1.6-1.4c0.5-0.4,0.9-0.7,1.4-1.2c0.4-0.4,0.7-0.8,1.1-1.2c0.6-0.7,1.2-1.3,1.9-2c-0.1,0.1-0.1,0.1-0.2,0.2
			c1.7-2.1,3.1-4.3,4.2-6.7c-0.1,0.2-0.1,0.4-0.2,0.7c0.5-0.9,0.9-1.9,1.2-2.7c0.2-0.6,0.4-1.3,0.6-2.1c0.1-0.3,0.1-0.6,0.2-0.9
			c0.1-0.4,0.2-0.8,0.3-1.3c0,0.1,0,0.2-0.1,0.2c0.4-2.3,0.7-5,0.8-7.4c0,0,0,0.1,0,0.1c0.3-3.9,0.4-7.1,0.4-7.2l0,0.1v0l0,0
			c0,0,0-3.3-0.1-4c0-0.1,0-0.2,0-0.3c-0.1-1.1-0.4-4.1,1.6-5.7c2.2-1.8,3.6-2.7,8.9-2.8c5.3-0.1,6.9,2.9,6.9,2.9s1.8,2.5,1.8,4.2
			c0,1.6-0.5,2.6-0.5,2.6s-2.9,4.9-3.9,7.3c-1,2.4-4.9,10.3-3.8,16.9c0,0,0,0,0,0v0c1.2,6.6,11.5,9.7,11.5,9.7s8.2,1.9,20,0.2
			l24.2-3.9l4.2-4.8l0,0.1l-4.2,4.8c0.6,8.8,1.3,26.1,1.2,31.9c-0.1,7.1-1.2,22.1-8.7,25.6c0,0-2.5,1.3-6.7-1.9
			c-4.2-3.2-8.8-3.3-10.6-3.4c-1.8-0.1-10,1.3-13.1,10.2c-3.2,8.9-2.9,20.9-2.2,27.9c0.7,7.1,6.8,19.1,14.5,19.1
			c0,0,3.8,0.3,8.2-4.3c4.4-4.6,7-5,9-4.9c2,0.1,5.8,2.1,8.3,22.1c2.4,19,3.4,34.5,3.2,51.8l4.6,3c0,0,0,0,0,0c0,0,0,0-0.1,0l-4.6-3
			c-2.5,0.3-5.6,0.6-8.7,0.8c-7.9,0.5-19.2-0.5-33.4-4.6c-13.7-4.1-22.3-11.3-24-16c0-0.2-0.2-0.4-0.2-0.6c-0.2-0.8-0.3-1.5-0.3-2.4
			c0-0.2,0-0.4,0-0.6c0-2.4,0.6-4.7,0.6-4.7s2.7-10.2,1-18.6c-0.2-0.9-0.4-1.9-0.6-2.7c-0.1-0.3-0.1-0.6-0.1-0.8
			c-0.1-0.2-0.1-0.4-0.2-0.7c-0.1-0.2-0.2-0.3-0.2-0.5c-1.9-6.2-4.9-11.3-11.5-15.2c-8.1-4.9-12.8-4.1-12.8-4.1s-7.3-1.1-7,11.2
			c0.3,12.3,1.8,17.5,1.8,17.5s1.4,4.4-0.8,4.9c-2.2,0.6-5.8-2.8-5.8-2.8s-1.6-1.4-3.8-3.6c-0.3-0.3-0.5-0.6-0.8-0.9
			c-1.5-1.5-3.1-3.2-4.7-4.9l0.7-1.8C13.1,412.1,12.9,410.8,12.2,409.7z M26.3,482.7c0,0,0-0.1,0-0.1c0.6-0.1,4.5,6.9,6.7,13.5
			c2.6,7.7,4.3,14.1,4.3,14.1s1.4,4.4,1.3,5.9C34.1,505.2,29.9,494,26.3,482.7z M64.6,566.8l-0.6-2.3c-0.2-0.8-0.7-1.6-1.4-2.1
			l-0.9-0.7c-7.3-12.3-13.7-25-19.5-38c0-0.1,0-0.2,0-0.3c0.1-0.2,0.1-0.5,0.1-0.9c0-0.2,0-0.6,0-0.9c0-0.5-0.1-1-0.2-1.6
			c0-0.2,0-0.3-0.1-0.5c0,0,0,0,0,0c-0.6-3.7-2.3-9.9-6.1-20c-4.1-11-6.7-16.9-8.3-20.1c0,0,0,0,0,0c-0.2-0.3-0.3-0.6-0.4-0.8
			c0,0,0,0,0,0c-1.4-2.5-2-3-2.1-3.2c-0.2-0.3-0.7-0.7-1-0.6c-5.1-17.2-8.9-34.7-11.6-52.6c0.6,0.7,1.3,1.5,2.1,2.3l0,0
			c1.4,1.5,3,3.2,4.9,5.2l0,0l0,0c0,0,0,0,0,0c8.4,8.7,11.1,3.2,11.1,3.2s0.1-0.4,0.3-1.1c0-0.1,0-0.2,0-0.2
			c0.1-0.3,0.1-0.7,0.2-1.1c0-0.2,0-0.3,0.1-0.5c0-0.4,0.1-0.9,0.1-1.4c0-0.1,0-0.1,0-0.2c0,0,0,0,0,0c0-1,0-2.3,0-3.7
			c0,0,0,0.1,0,0.1c0,0,0-0.1,0-0.1c0-0.7-0.1-1.5-0.2-2.3c0-0.4-0.1-0.8-0.2-1.3c-0.1-0.8-0.3-1.8-0.5-2.7c-0.1-0.3-0.1-0.6-0.2-1
			c0,0,0-0.1,0-0.1c-1.5-6.1-1.9-10.7-0.9-13.3c0.3-0.7,0.7-1.2,1.1-1.6c0.2-0.1,0.3-0.2,0.5-0.3c0.4-0.2,0.8-0.3,1.3-0.4
			c0.2,0,0.3-0.1,0.5-0.1c4.5,0.2,17.5,2.8,21.6,13.6c0,0,1.7,5,0.1,11.5c-1.6,6.5-1.3,12.2-0.1,17.8c1.1,5.6,5.9,10.9,11.4,15.3
			c5.5,4.4,21.3,11.9,36.8,12.9c15.4,1,20.2,0.2,20.2,0.2l5.7-5.9c0,0,0,0.1,0,0.1l-5.8,5.9c-0.3,1.5-0.7,3.2-1.1,4.9
			c-1.3,5.3-1.5,10.6-0.2,20c1.2,9.4,6.3,28.9,13.6,34c9.7,6.8,16.1,6.6,22.7,6.1c6.5-0.5,11.1-5.5,11.1-5.5s2.6-2.6,5.3-1.8
			c2.8,0.8,10.5,5.1,16,16.2c5.5,11.1,6.8,23.2-2.5,25.4c-9.2,2.1-25.1-6.6-25.1-6.6s-9-5-16.4,0.5c-7.4,5.6-7.6,14-3.9,24.5
			c2,5.7,6.1,15,11.7,24.8l5.5,2.3c0,0,0,0,0,0l-5.5-2.3c-8.9-1.7-25.2-5.2-31.7-8.4c-2.5-1.3-4.5-1.9-6-2.7
			c-0.7-0.4-1.3-0.8-1.7-1.4c-0.7-1-0.9-2.3-0.6-4.5c0.8-6-5.8-14.3-5.8-14.3s-9.2-10-17.5-16.2c-8.3-6.2-11.8-4.4-11.8-4.4
			s-3.7,2-0.4,10.1c3.4,8.1,6.7,10.9,6.7,10.9s1.6,1.7,0.7,2.2c-0.9,0.5-3.8-1.7-6.1-3.7c-1.1-0.9-5.5-5-9.9-9.1
			C67.8,571.7,66.1,569.3,64.6,566.8z M265,731.8c10.3,1.4,23.4,2.9,27.9,3.3l0.1,0c0,0.7-0.3,1.4-0.7,2.4c-0.8,1.8,0.9,3.1,2.4,3.9
			C284.6,738.6,274.7,735.4,265,731.8z M297.6,733L297.6,733l1.1,0c-0.9-0.9-2.2-1.6-3.5-2.4c-0.1-0.1-0.2-0.2-0.4-0.2
			c0.1,0.1,0.2,0.2,0.3,0.2c-0.4-0.2-0.8-0.5-1.3-0.7c-5.4-2.9-29-18.4-36.3-23.4c-4.9-3.3-12.1-8-18.1-10.3
			c-0.4-0.2-0.8-0.3-1.2-0.4c-2.5-0.8-4.7-1.2-6.3-0.7c-4.3,1.3-3.7,3.1-6.2,4.3c-1.9,0.9-3.9,0.7-7.4-0.9c-0.1,0-0.1-0.1-0.2-0.1
			c-1.2-0.5-2.5-1.2-4-2c-0.5-0.2-0.9-0.5-1.4-0.7c-0.7-0.4-1.5-0.8-2.2-1.2c-3.9-2.1-7.8-4.7-14.2-10.3c-0.6-0.5-1.1-1-1.7-1.5
			c-1.3-1.1-2.6-2.3-4-3.7c-9.7-9.2,12.4-0.9,12.4-0.9s4.8,2,2.7-3c-0.3-0.6-0.6-1.3-1.1-2.1c-0.2-0.4-0.6-0.9-0.9-1.4
			c-0.3-0.4-0.5-0.8-0.8-1.2c-0.4-0.6-0.9-1.3-1.4-1.9c-0.3-0.4-0.5-0.7-0.8-1.1c-0.5-0.7-1.1-1.5-1.7-2.2c-0.3-0.4-0.6-0.8-1-1.2
			c-0.6-0.8-1.2-1.5-1.9-2.3c-0.4-0.5-0.9-1-1.3-1.6c-0.6-0.7-1.1-1.4-1.7-2c-0.7-0.8-1.4-1.6-2.2-2.5c-0.4-0.4-0.7-0.8-1.1-1.2
			c-0.9-1-1.8-1.9-2.7-2.9c0,0,0.1,0.1,0.1,0.2c-1.6-1.8-3.3-3.5-4.9-5.2c-3.1-3.2-5.6-6-8-8.7c0.1,0.1,0.1,0.2,0.2,0.2
			c-4.1-4.7-7.4-9.2-11.1-14.5l-4.3-5c0,0.1,0.1,0.1,0.1,0.2l-0.2-0.2l-1.5,4.2c3.8,5.8,8.2,11.5,13,16.4c0,0,19.2,21.2,29.8,34.6
			c0,0,0.6,1.2-1.2,0.1c-1.9-1.1-9.8-4.8-14.1-4.4c-4.3,0.4-3.5,3.1-3.5,3.1s1.9,9.7,31.2,26.1c0,0,10.6,5.9,17.2,5.9
			c0,0,2.2,0.3,4.8-2.7c2.7-2.9,3.5-2.6,5.3-2c1.9,0.6,4.3,1.9,13.5,8.6c9.2,6.7,27.2,16.9,33.6,21.2c2.1,1.4,3.4,2.4,4.3,3.3
			c-13.2-1.1-27.6-2.8-35.2-3.9c-3.4-1.3-6.8-2.7-10.1-4.2c-1.6-1-3.5-2.1-5.4-3.2c-4-2.4-16.1-7-16.1-7s-1.2-0.5-3-1.1
			c-14.4-7.3-28.4-15.5-41.8-24.6c2.3,0.8,4.8,1.2,6.6,0.1c-0.4-4.4-5.5-8-8.3-10.1c-1-0.8-1.8-2.2-2.8-3.1c-3.7-3.2-8-6.4-12-9.2
			c-3.3-2.3-7.8-3.7-10.8-6.4c-0.1-0.7,0.9-2.3,0.3-4c-2.6-7-12.3-15-18.4-18.7c-2.8-1.8-7.6-2.5-10.1-4.3c-1.9-0.1-2.9-0.2-3.4,1.2
			c-0.8,1.7,1.6,4,2.4,5.2c2.1,3,4.5,6.4,7.4,8.6c2.1,1.6,4.6,3,6.4,4.9h0.9c-1.2-3.3-4.7-5.1-7.4-7.1c-2.4-1.8-3.5-4.9-5.5-7.1
			c0.2-1,0.3-0.9,0.6-1.5c8.5,0.1,14,7.9,17.8,12.9c1.7,2.2,4.4,3.6,4.6,7.4c-0.9,0-1.7,0-2.2-0.3h-0.9c1.5,4,6.4,3.7,9.8,5.9
			c6.9,4.3,12.5,10.9,18.4,16.3c2,1.8,5.6,3.6,6.1,6.8c-4.2-0.2-7.1-2.5-9.8-4.3c-0.3-0.2-0.7-0.5-1.1-0.7
			c-3.9-2.9-7.8-5.9-11.6-8.9c-1.2-1.1-2.2-2.2-3-3.3c-0.6-0.8-0.8-2-1.6-2.8c-0.8-0.9-2-1.1-2.8-2.1h-1.2c0,0.6,0.1,1.1,0.3,1.6
			c-27.2-22.7-51.6-49.4-72.3-79.5c0.4,0.3,0.8,0.7,1.2,1c9,7.1,11.3,6.7,11.9,6.1c0.2-0.2,0.2-0.5,0.2-0.5s0.5-3.1-2.3-6.5
			c-0.8-0.9-1.7-2.2-2.5-3.6c-0.4-0.6-0.7-1.1-1.1-1.7c-1.1-1.8-2-3.7-2.4-5.3c0-0.1,0-0.2-0.1-0.3c-0.1-0.4-0.2-0.8-0.2-1.2
			c0-0.4,0-0.7,0.1-1c0,0,0-0.2,0-0.2c1.1-2.6,2.4-2.4,2.4-2.4s1-0.4,4.6,2.3c3.6,2.7,11.6,8.4,15.6,13.2c3.9,4.8,3.7,9,3.7,9.1
			c0,0,0,0.3,0,0.8c0,1.4,0.3,4.8,3.6,8.4c4.3,4.7,13.5,13.3,45.5,18.2c0.2,0,0.3,0,0.5,0.1l1.5-4.2l0,0l0,0l0.1,0.1c0,0,0,0,0,0
			l4.3,5.1c0,0,0.1,0,0.1,0c27.9,4,43.1,4.4,43.1,4.4s36.6,1.3,46.5,1.3c8.4,0,8.3,3.7,8.1,4.8c0,0.2-0.1,0.3-0.1,0.3
			s-0.6,2.8-1.7,5c-0.8,1.4-2.2,5.2-2.4,9c-0.1,2.3,0.1,4.5,1.2,6.2c0,0,4.5,11.1,34,11.9c0,0,25.8,2.1,43.8-5.3
			c5.7-2.3,7.9-4.9,8.4-7.4c1.1-5.4-6.6-10.3-6.6-10.3s-6.2-3.7-8.8-5.7c-1.2-0.9-1.5-1.8-1.5-2.7c0-0.8,0.4-1.6,0.6-2.2
			c0.5-1.3,2.3-2.8,4.4-3.8c2.1-1,9.6-5.1,41.7-13.4c32-8.3,51.2-9.2,51.2-9.2s0.2,0,0.3,0c3.1,7.5,5.4,11.6,10.1,16.7
			c5,5.5,13,9.7,22.4,13.3c9.4,3.6,5.1,10,5.1,10c-5.4,11.6-21.4,12.1-26.1,12.7c-4.7,0.5-14.5,1.5-23.7,3.5c-9.2,2-17.8,3.2-23,9.2
			c-5.1,5.9-3.1,12.1-0.1,18.6c3,6.5,11.1,10,22.2,9.5c11.1-0.5,18.3-3.7,25-6.6c6.7-2.9,18.4-6.3,21.8-7.3c3.5-1,8.2-3,11.6,2
			c3.7,5.5,7.7,13.2,9.6,19l4.3-0.9c0,0,0,0,0,0c-0.8,0.2-1.4,0.3-2,0.4c-1.3,0.3-2,0.5-2,0.5s-9.4,2.3-25.1,8.3
			c-15.7,6.1-46.4,11.1-46.4,11.1s-10,1.2-16.4,2.8c0.7-0.2,1.4-0.4,1.4-0.4s7.4-1.5,14.9-2.5c0,0-19.8,2.3-21.6,4.9
			c-0.6,1-0.5,1.8-0.2,2.5c0.5,1,1.8,1.5,1.8,1.5s2.8,1.7,13,2.2c0,0,3.5,0,3.7,0.3c0,0,0,0,0,0c0,0.1,0.1,0.2,0.1,0.2
			c0,0,0,0.1,0,0.1c-0.1,0.1-0.2,0.2-0.5,0.4c-0.3,0.1-0.7,0.3-1.3,0.5c-2.2,0.7-6.6,2.4-21.6,4.3c-9.9,1.2-13.1,0.6-14.2,0.1
			c0,0,0,0,0,0c-0.6-0.3-0.6-0.6-0.6-0.6s0-0.2,0-0.4c0.1-0.3,0.2-0.7,0.6-1.2c0.2-0.3,0.3-0.6,0.3-0.9c0-1-0.7-2.3-2.5-3.3
			c0,0-0.6-0.4-2.1-0.8c0,0,0.1,0,0.3,0.1c-2-0.6-5.7-1.4-12.4-1.3c-10.9,0.1-32.7,0.1-53.1-1.1C298.5,733,298.1,733,297.6,733z
			 M345.8,751.9c-6.8-0.9-13.5-2-20.2-3.2c4-0.2,6.8-0.4,10.2,0.3c4.9,1,9.9,2.2,10.4,2.7C346.5,751.8,346.2,751.8,345.8,751.9z
			 M425.5,754.7c5.3-0.7,11.7-1.1,15.3-1.5c1.5-0.2,2.5-0.2,3.2-0.2C437.8,753.7,431.7,754.3,425.5,754.7z M453.4,751.9
			c-0.4-0.3-1.5-0.5-4-0.6c-2.2-0.1-4.5-0.1-6.8,0c-3.2,0-7.5,0.2-11.3,0.7c-2.7,0.4-5.4,0.8-7.7,1.2c-0.8,0.1-1.5,0.2-2.2,0.3
			c-5,0.7-7.3,1.4-8.3,1.8c-4.4,0.2-8.7,0.3-13.1,0.3c-15.7,0-31.1-1-46.4-2.8c0.5-0.5-0.6-1.1-1.4-1.5c-0.4-0.2-0.7-0.3-0.7-0.3
			s-0.7-0.3-2.1-0.8c0,0,0,0,0,0c-0.1,0-0.3-0.1-0.4-0.2c0.1,0,0.2,0,0.2,0c-0.8-0.2-1.8-0.5-3-0.9c0,0-0.1,0-0.1,0
			c-0.9-0.2-1.9-0.5-3-0.7c0,0,0,0-0.1,0c-2.3-0.5-5.1-1-8.5-1.4c0.1,0,0.2,0,0.3,0.1c-1.8-0.2-3.7-0.4-5.7-0.6
			c0,0-6.2-0.4-11.7,0.1c-0.2,0-0.5,0-0.7,0c0,0,0.1,0,0.1,0c-0.1,0-0.2,0-0.2,0c-4-0.9-8-1.8-12-2.7c-2.2-0.9-5.5-2.6-4.2-4.3
			c1-1.3,1.1-2.6,0.5-3.9c8.6,0.5,19.8,1.1,19.8,1.1s23.1,0.9,35.8-0.2c5.7-0.5,3.9,2.5,3.9,2.5s-1.7,2.8,1.6,4.1c0,0,6,3.4,26,1.2
			c20-2.2,24.4-6.7,24.4-6.7s2.3-2.1-2.7-3.1c-0.3-0.1-0.5-0.1-0.8-0.2c-0.1,0-0.3-0.1-0.3-0.1c0,0-0.1,0-0.2,0c-0.1,0-0.1,0-0.2,0
			c0,0-0.1,0-0.1,0c0,0-0.1,0-0.2,0c0,0-0.1,0-0.1,0c0,0-0.1,0-0.1,0c0,0-0.1,0-0.1,0c0,0-0.1,0-0.1,0c-0.1,0-0.1,0-0.1,0
			c0,0-0.1,0-0.1,0c0,0-0.1,0-0.1,0c0,0-0.1,0-0.1,0c-0.1,0-0.1,0-0.2,0c0,0,0,0-0.1,0c-0.1,0-0.2,0-0.2,0c0,0,0,0,0,0
			c0,0-0.1,0-0.2,0c0,0,0,0-0.1,0c0,0-0.1,0-0.2,0c0,0-0.1,0-0.1,0c-0.1,0-0.1,0-0.2,0c0,0,0,0-0.1,0c-0.1,0-0.1,0-0.2,0
			s-0.1,0-0.1,0c-0.1,0-0.1,0-0.2,0s0,0-0.1,0c-0.3,0-0.6,0-1-0.1c0,0,0,0,0,0c-0.1,0-0.1,0-0.2,0c0,0-0.1,0-0.1,0c0,0-0.1,0-0.2,0
			c0,0-0.1,0-0.1,0c0,0-0.1,0-0.2,0c0,0-0.1,0-0.1,0c0,0-0.1,0-0.2,0c-0.1,0-0.2,0-0.2,0c0,0-0.1,0-0.2,0c-0.1,0-0.1,0-0.2,0
			c0,0-0.1,0-0.1,0c-0.1,0-0.1,0-0.2,0s-0.1,0-0.2,0c-0.1,0-0.1,0-0.2,0c0,0-0.1,0-0.2,0c-0.1,0-0.1,0-0.2,0c0,0-0.1,0-0.2,0
			c-0.1,0-0.2,0-0.2,0c-0.1,0-0.1,0-0.2,0c-0.1,0-0.2,0-0.3,0c0,0-0.1,0-0.2,0c-0.2,0-0.3,0-0.4,0c-1.1-0.2-2.1-0.3-2.9-0.4
			l-1.2-0.2c-1.9-0.5-2.2-1.2,0-1.8c3.4-0.9,9.1-1.4,9.1-1.4s17.5-2.4,31.6-6.1c0,0,15.1-3.6,30-8.8c5.9-2.1,10.8-3.6,14.7-4.6
			l3.4-5c0,0,0,0,0,0l-3.3,4.9c0.7,5.1-0.8,6.8-2,8.7c-1.2,2-4.6,4.6-2.9,9.2c1.7,4.6,13.1,3.1,19.7,1.1c6.6-2,12.2-3.8,16.6-5.4
			c4.4-1.5,5.6,0.7,5.6,0.7s1.9,1.4-4.5,4.7c-1.4,0.7-3.1,1.4-4.9,1.9c-0.2,0.1-0.4,0.2-0.7,0.2c-1.4,0.4-2.9,0.8-4.4,1.2
			c-0.4,0.1-0.8,0.2-1.2,0.3c-1.2,0.3-2.5,0.5-3.7,0.7c-0.5,0.1-1,0.2-1.5,0.3c-1,0.2-2,0.3-2.9,0.4c-0.5,0.1-1.1,0.2-1.6,0.2
			c-1,0.1-2,0.3-2.8,0.4c-0.7,0.1-1.2,0.1-1.8,0.2c-0.3,0-0.6,0-0.8,0.1c-0.2,0-0.4,0-0.5,0c-0.3,0-0.6,0-0.9,0.1
			c-0.2,0-0.4,0-0.6,0.1c-0.1,0-0.2,0-0.3,0c-0.3,0-0.6,0.1-0.9,0.2c-0.1,0-0.1,0-0.2,0c-1.2,0.3-3,0.8-6.3,1.9
			c-8.4,2.9-0.5,5.5-0.5,5.5c4.2,1.1,8.1,1.7,11.8,2.1C477.6,747.9,465.6,750.2,453.4,751.9z M613.7,691.2c-0.2,0.2-0.3,0.3-0.5,0.5
			c-35.2,23-74.2,40.5-115.6,51.4c-3.7-0.3-6.3-0.8-7.7-1c-3.3-0.5-6-1.1-6.8-2.8c-0.1-0.2-0.1-0.4-0.1-0.5c0.3-1.1,3.8-1,3.8-1h0
			c0,0,0.7-0.1,1.9-0.2c3.4-0.5,11-1.6,18.9-3.8c1.5-0.4,2.9-0.8,4.4-1.3c12.1-3.9,15-7.6,14.5-10.4c-0.1-0.4-0.3-0.8-0.6-1
			c-0.1-0.1-0.2-0.2-0.3-0.3c-0.3-0.2-0.6-0.3-0.9-0.4c-0.2,0-0.3-0.1-0.5-0.2c-0.5-0.1-1-0.2-1.6-0.2c-0.1,0-0.2,0-0.3,0
			c-0.7,0-1.5,0.1-2.3,0.2c-0.1,0-0.2,0-0.4,0c0.1,0,0.1,0,0.2,0c-2.1,0.3-4.5,0.8-7,1.6c-7.3,2.4-18.1,5.8-20.7,6.4
			c-0.6,0.1-1.3,0.2-1.9,0.3c0.1,0,0.1,0,0.2,0c-0.9,0.1-1.8,0-2.6-0.2c-0.1,0-0.2-0.1-0.3-0.1c-0.7-0.2-1.3-0.6-1.6-1.1
			c0,0,0,0,0,0c-0.9-1.6-1.7-4.1,1.1-7c2.8-2.9,3.1-5.4,3.1-5.4c0.3-1.3,0.3-2.6,0.3-4c0-0.3,0-0.7-0.1-1c0-0.4,0-0.8-0.1-1.2
			c0.5-0.1,0.8-0.2,0.8-0.2s17.9-4.2,25.4-5.5c7.5-1.3,24.5-5,31.8-8.4c7.2-3.5,10.8-6.3,11.7-8.4c0.8-2.1-3.1-3.3-3.1-3.3
			s-4.6-1.1-3.9-2.6c0.6-1.6,2.3-3,9.4-6.2c7.1-3.2,16.1-6.7,25.1-8.9c9-2.2,5.7,1.5,5.7,1.5s-5.4,5.5-6.1,7.6
			c-0.7,2.1,0.2,2.2,0.9,2.6c0.7,0.4,5,0.2,7.9-0.5c3-0.8,26.9-9.9,41.5-18.2c0.4-0.2,0.7-0.4,1.1-0.6l3-5.1l0,0c0,0,0,0,0,0
			c-0.2,0.3-0.2,0.5-0.4,0.7c-4.4,7-6.2,11.1-6.2,11.1s-2.2,4.3-2.4,6.7c-0.2,2.4-2,2.1-2,2.1s-3.7-0.2-9.1,2.1
			c-0.2,0.1-0.3,0.1-0.5,0.2c0,0-0.2,0.1-0.6,0.3c-1.7,0.8-3.6,2-5.6,3.4c-0.4,0.3-0.7,0.5-1.1,0.7c-0.2,0.2-0.5,0.3-0.6,0.5
			c-5.7,4.7-9.7,8.7-11.9,11.2c-0.1,0.1-0.2,0.3-0.3,0.4c-1.2,1.3-1.8,2.1-1.8,2.1s-3.3,4.4-0.1,4.4c3.2,0,10.7-3.9,13.5-6.4
			C615.2,689,613.7,691.2,613.7,691.2z M682.4,633.1c-5,5.5-7.5,7.8-7.5,7.8s-0.9,0.9-1.8,2L673,643c0,0,0,0.1-0.1,0.1h0
			c-0.6,0.8-1.2,1.6-1.6,2.3c-16.4,15.7-34,30.1-52.9,42.8c0.4-0.6,0.6-1.1,0.3-1.3h0c0,0,0,0,0,0c-1-0.8-4.9,2-4.9,2
			s-0.6,0.5-1.4,1.1l0,0c-1.1,0.8-2.6,1.8-4.1,2.6c-0.4,0.2-0.9,0.4-1.3,0.6c-0.3,0.1-0.5,0.2-0.8,0.3c-0.6,0.2-1.1,0.3-1.6,0.3
			c-3.1-0.3,3.7-6.7,3.7-6.7s3.9-4.4,8.7-7.2c1.6-0.9,3.3-1.6,5-1.9c6.7-1.2,7.9-2.9,11.2-5.4c1.1-0.8,1.9-1.7,2.7-3
			c1.6-2.5,3.4-6.4,7.9-14.5c0.3-0.5,0.5-0.9,0.8-1.4h0c8.6-4.8,11.6-6.3,13.7-7.5c9.2-5.5,20.1-12.1,23-14.4
			C681.5,631.6,687.4,627.5,682.4,633.1z M737.9,561.5c2.4-5.1,4.3-10.6,6.7-15.9c2.3-5.3,5.7-10.5,5.5-18.1
			c-0.4-0.3-0.6-0.8-0.9-1.2h-1.9c-1.9,1.6-4.4,2.3-6.5,3.7c-3.1,2.2-5.9,5.1-8.9,7.4c-1.4,1-3.4,2-4.3,3.4
			c-1.5,2.3-1.2,6.3-3.1,8.3v1.2c2.4-0.9,3.6-3.8,5.5-5.2c2.4-1.8,4.4-4.2,6.8-5.9c1.5-1,3.2-1.6,4.6-2.8c1,0.2,0.9,0.3,1.5,0.6
			c-0.2,7.8-4.3,13.3-6.8,19.1c-0.7,1.7-0.9,4.3-2.2,5.5c-0.6,0.6-1.8,0.7-2.4,1.2c-2.1,2.3-4.1,4.5-6.2,6.8
			c-1.9,2.7-2.8,6.2-4.9,8.9c0,0.9,0,1.7,0.3,2.2c0.3,0.2,0.9,0.5,1.2,0.6c3.4-3.2,6.6-6,9.6-9.5c-13.3,21-28.6,40.6-45.5,58.6
			c0.3-0.4,0.7-0.9,1-1.3c0.2-0.2,0.3-0.4,0.4-0.6c2.4-3.3,0.7-3.1,0.7-3.1s-0.5-0.1-2,0.5c-0.2,0.1-0.4,0.2-0.7,0.3
			c-0.1,0.1-0.2,0.1-0.3,0.1v0c-1.1,0.5-2.6,1.3-4.6,2.6c-6.2,3.9-10.6,6.7-10.6,6.7s-13.4,7.6-21.9,12.6c-0.1,0-0.2,0.1-0.2,0.1
			c0,0,0,0,0-0.1c0.1,0,0.2-0.1,0.2-0.1c-0.1,0-0.2,0.1-0.2,0.1c6.1-9.5,13.3-17.9,18.8-24c6.7-7.5,14.7-19.6,14.7-19.6
			s5-8.6,5.2-12.5c0-0.6,0-1-0.2-1.4c-0.1-0.2-0.3-0.1-0.5-0.2c-0.2-0.1-0.3-0.2-0.6-0.3c-1.9-0.3-5.9,1.7-12,6.3
			c-5.6,4.2-10.1,7-13.8,9c-0.2,0.1-0.3,0.1-0.5,0.2c0.2-0.1,0.3-0.2,0.5-0.2c-2.1,1-4.3,1.7-6.2,1.9c-5,0.5-6.8-2.5-7.2-5.6
			c-0.3-1.9-0.1-3.9,0.1-5.3c0.5-3.6,2.4-12,8.3-15.3c5.8-3.3,14-3.2,19.7-4c5.7-0.8,8.4-2.4,8.4-2.4s9.3-5.9,15.5-15.9
			c6.2-10,11.7-26.2,12.3-42.3c0-0.2,0-0.3,0-0.5c0.1-1.6,0-3.1-0.1-4.5c0-0.5-0.1-1-0.2-1.5c-0.1-1.1-0.2-2.1-0.4-3
			c-0.1-0.4-0.2-0.8-0.2-1.2c-0.3-1.2-0.5-2.3-0.9-3.4l0,0c15.4-12.2,30.1-27.7,30.1-27.7s9.8-9.8,14.7-18.3
			c0.4-0.6,0.7-1.1,0.9-1.5c0.1-0.1,0.2-0.2,0.2-0.3c0.2-0.2,0.4-0.4,0.5-0.5c0,0,0,0,0.1,0c0.1-0.1,0.2,0,0.3,0.1c0,0,0,0.1,0,0.1
			c0,0.2,0.1,0.4,0,0.6c0,0,0,0.1,0,0.2c0,0,0,0.1,0,0.1s-4,11.2-2.6,16.8c0,0,0,0.1,0,0.1c0,0,0-0.1,0-0.1c0,0.1,0,0.2,0,0.3
			c0.1,1.1,0.2,2.2,0.5,3.3c0.1,0.3,0.2,0.6,0.3,0.9c0.3,1.1,0.8,2.1,1.5,2.9c0,0,0,0,0,0.1c0.1,0.1,0.3,0.1,0.5,0.2
			c3.4,2.4,11.7-6.4,11.7-6.4s5.3-6.1,7.5-16c2-9.1,2-13.7,1.8-15.8c-0.1-1.3-0.4-1.7-0.4-1.7s-1.9-3-0.7-6.6
			c0.1-0.3,0.3-0.8,0.5-1.3c2-5.4,8.6-21.8,14.4-29.1C784.4,460.4,766,514.1,737.9,561.5z M730.7,567.8c-0.4,3.1-2.7,5.8-4.9,7.1
			v0.3h-0.3c0.5-3.7,3.3-4.7,4.6-7.4H730.7z M754.1,461.3c-0.3,1.2-0.6,2.2-0.6,2.2s0,0.2-0.1,0.4c0-0.2,0.1-0.4,0.1-0.4
			S753.8,462.6,754.1,461.3z M791.4,388.2l-1.9,3.2c-0.6,1-0.7,2.3-0.3,3.4l0.8,2.1c0,0.1-0.1,0.1-0.1,0.2c0,0,0,0,0,0
			c-0.1,0.2-0.2,0.4-0.3,0.6c-1.4,2.2-3.2,5.1-5.3,8.6c-9.8,16.2-11.4,29.3-11.4,29.3s-0.9,5.1-0.4,8c0.1,0.6,0.2,1.1,0.4,1.5
			c0,0,0,0.1,0,0.1c0.1,0.5,0.3,0.8,0.4,1.2c0,0,0,0,0,0.1c0,0,0,0,0,0c0.2,0.4,0.3,0.8,0.5,1.1c0,0.1,0,0.1,0,0.2
			c0.1,0.2,0.1,0.4,0.2,0.6c0,0.4-0.1,1.9-0.5,4.1c-0.1,0.4-0.2,0.8-0.3,1.3c-0.1,0.4-0.2,0.7-0.3,1.1c-0.2,0.9-0.5,1.8-0.8,2.7
			c-0.1,0.3-0.2,0.6-0.4,0.9c-0.4,1-0.9,2.1-1.4,3.2c-0.1,0.1-0.1,0.3-0.2,0.4c-3.4,6.3-6.3,8-6.3,8s-5.9,4.2-6.7,1.2
			c-0.8-3-0.6-5.6-0.3-7.5c0.3-1.9,2.2-12.3,2-16.1c-0.3-3.8-3.7-0.8-3.7-0.8s-0.8,0.9-2.3,2.8c-1.5,1.9-10,12.7-13.2,16.5
			c-7.7,9-14.7,15.5-33.3,30.5c-0.1,0-0.1,0.1-0.2,0.1c-0.1-0.1-0.1-0.1-0.2-0.2c-0.7-1.2-1.4-2.1-2.1-3c-0.8-1.1-1.6-1.9-2-2.6
			c-2.2-2.8-6.2-1.6-11.1-13.4c-4.9-11.8-6-21.9-5.9-28.9c0-1,0-1.9,0.1-2.8c0.5-6.9,2.1-9.6,5.3-12.5c3.2-3,17.3-1.6,17.3-1.6
			s6.9,1.4,13.1-8.8c4.6-7.6,5.5-18.8,4.9-27.5c-0.2-3-0.6-5.7-1.2-7.9c-2-8.4-4.8-15.6-16.3-16.8c-11.4-1.2-16.6,12.9-16.6,12.9
			s-2.3,5.4-4.7,8.5c-2.4,3.1-9,2.2-9,2.2c-2.9-0.3-6.4,0.8-9.8-6.3c-3.4-7-11.2-25.5-11.2-25.5c-2.6-6.3-4.3-11.8-5.3-16l-5.6-2.3
			l0,0l5.6,2.3c7.9-4.4,21.5-12.3,31.2-20.4c14.5-12.2,28.7-25.1,32.4-28.3c3.6-3.2,6.9-5.8,10.1-5.7c3.2,0.2,5.7,2.5,7.7,11.1
			c2,8.7,2.4,15.8,3.3,20.1c0.9,4.2,2.2,9.1,7.2,10.1c5,1,11.8-3.4,14.3-5.5c0.6-0.5,1.4-1.4,2.2-2.5c0-0.1,0.1-0.1,0.1-0.2
			c0.3-0.5,0.7-1,1-1.6c1.9-3.4,3.7-8.3,3.5-14.2c0,0,0.5-12.5-5.9-24.3c0,0-2.7-4.8-3.7-6.1c-0.7-0.9-1.2-1.9-0.1-4.1
			c0.3-0.5,0.6-1.2,1.1-1.9c1.4-2.2,3.6-5,7.1-7c3.5-2,6.8-2.5,8.7-3.1c0,0,2.2-0.5,4.9-2l0,0c0,0,0,0,0,0c0,0.1,0.1,0.2,0.1,0.2
			c4.1,12.7,8.8,33.9,8.8,33.9s1.5,6.2,1.6,9.1c0.2,2.9-0.5,3-1.8,1.4c-1.3-1.5-2.6-0.6-2.6-0.6s-1.4,0.6-1.4,6s0.6,18.2,1.7,28.1
			c1.2,11.7,4.8,16.6,4.8,16.6s3.2,4.8,4.1-4.5c0-0.3,0.1-0.5,0.1-0.8c0.1,4.3,0.4,8.5,0.4,12.8C792.2,371.5,792,379.8,791.4,388.2z
			"/>
		<path class="st0" d="M186,650c0.4,0.5,0.8,0.9,1.2,1.4c-0.1-0.1-0.1-0.2-0.1-0.2L186,650z"/>
		<path class="st0" d="M124.6,285.2L124.6,285.2L124.6,285.2z"/>
		<polygon class="st0" points="428.6,600.7 428.7,600.7 428.6,600.7 		"/>
		<path class="st0" d="M599.2,585.6c-9-2.2-16.5,2.2-25.8,1.5c-0.9-0.9-1.6-1.5-2.1-2.8c-6.5,0.2-13.7,14.6-7.1,19.1
			c3.5,2.4,13.6,1,17.8,0c2.4-0.5,6.1-1.1,8,0.3c2.6,1.9,2.1,9.2,1.2,13.2c-1,7.6-2.1,15.2-3.1,22.8c-0.9,4.6-1.8,9.2-2.8,13.8
			c4.7,0,9.2-4.9,10.5-8.3c0.8-2,0.4-3.9,0.9-6.1c1.6-6.5,1.8-14.1,3.4-20.9c1-4.4,0.3-8.5,1.2-12.6c0.7-3.1,1.1-13.2,0.3-16
			C601.2,588,600,586.8,599.2,585.6z"/>
		<path class="st0" d="M163.6,69.2v-0.6h-1.2c-1.4,1.1-5.2,1.7-7.1,2.8c0.2,1.1,0.2,0.8,0.9,1.2c-1.1,3-4.6,5.2-6.5,7.7
			c-2.9,3.9-6.1,7.5-8.9,11.4c-0.9,1.3-1.6,3.3-2.8,4.3c-1.8,1.6-7.1,1.4-9.2,3.1h-0.6c0.4-2.6,7.1-10.8,8.9-12.6v-0.3
			c-3.2,0.4-5.6,2.1-7.7,3.7c0.3,0.7,0.3,0.6,0.9,0.9c-1.1,1.9-2.8,3.2-4,4.9c-1.5,2.1-2.4,4.7-4,6.8c0.1,0.3,0.2,0.6,0.3,0.9
			c2-0.2,10.1-2.8,11.4-3.7h0.9c-1.2,3.7-6.1,8.9-8.3,12.3c-1.2,1.9-2,4.4-3.7,5.8c0.3,0.3,0,0,0.3,0.3c0.7,0.4,6.3-1.1,7.4-1.8
			c0.6,0.1,0.6,0.1,0.9,0.3c0.3,0.5-3.7,7.7-4.6,8.6v0.3c1.5-0.2,3.9-0.4,4.9-1.2c3-2.3,3.7-7.3,5.8-10.5c-0.1-0.5-0.2-1-0.3-1.5
			c-1.7-0.3-5.3,0.2-6.8,1.2h-0.3c0.7-3.7,6.7-10.5,8.9-13.5c3.5-5,6.8-9.9,10.4-14.8c1.9-2.6,4.5-4.8,6.5-7.4
			C158.4,75,160.7,71.2,163.6,69.2z"/>
		<path class="st0" d="M248.7,583.8c-0.5,1-0.4,2.8-0.9,4c-2.7,6.5-3.5,7.9,0.6,14.1c1.9,0,2.1-0.3,3.1-0.9
			C252.8,595.9,253,586.2,248.7,583.8z"/>
		<path class="st0" d="M261.7,578.2c-1.3-2.1-3.8-2.7-5.5-4.3c-0.5-0.2-0.3-0.1-0.6-0.3c4-2.1,8.2-4.3,12.3-6.1
			c1.1,1.2,6.2,6.2,8,5.2c0.3-0.1,0.6-0.2,0.9-0.3c-0.1-1.8-0.2-3.5-0.3-5.2c-3.9-3.9-9.6-7.1-16-8.3v0.3h-0.3
			c0.7,2.1,3.1,4.1,4.9,5.2v0.9c-3.6,0.5-6.9,2.3-10.1,3.4c-2.2,0.7-5,0.6-6.8,1.8h-0.9c1.3-3.7,5.7-6.8,8-9.8
			c4.5-6,8-13.4,15.1-16.9c-0.2-2.8-8.4-8.7-11.4-6.8c-0.8,0.4-0.2-0.2-0.6,0.6c-0.5,1.1,1.1,2.5,0.6,4.3c-0.6,2.4-6.4,13.5-8,14.8
			v0.3c-3.2-1.1-5.6-4.1-8.6-5.5c0.5-2.8,2.9-5,4.3-7.1c3.5-5.3,6.3-10.4,11.7-13.8c0-4.1-6.6-8.4-11.1-8.3c0,1.9,1,2.9,0.6,4.6
			c-1.1,5-3.4,10.1-5.2,14.5c-1.2,2.8-1.8,6.2-3.7,8.3c-0.4,0.2-3.8,0-4.6-0.6c-1.2,0-2.3,0-3.1,0.3v0.6c5.2,5,10.8,6.7,17.8,9.9
			c-1,5.1-6.1,8.5-8.6,12.3c-1.3,0-2.3-0.1-3.1-0.6c-0.7,0.1-0.8,0.2-1.2,0.3c0.1,4.5,3.9,8.4,7.7,9.2c2.5-2.8,5.7-4.2,9.5-5.8
			c3.5,3.6,4.5,8.8,5.8,14.7c0.6,2.6-0.4,5.4,0.3,7.7c1.2,4,3.3,5.2,5.2,8h2.2c1.3-7.2-2-14.2-3.7-20
			C262.7,583.2,262.2,580.7,261.7,578.2z"/>
		<path class="st0" d="M339.1,713.8c2.3,0.8,4.2,3.1,6.5,4.3c5.9,3.1,15.7,5.6,24.6,3.7c4.4-1,8.9-1,10.1-4.9
			c1.4-2.2-0.5-5.2-1.2-6.4c-2.9-5.1-6.6-8.5-11.4-11.7c-15.7-10.7-38.7-21.5-65.5-20.9c-1.3,0.8-3.9,0.2-5.5,0.6
			c-2.2,0.6-3.6,1.7-5.2,2.8c-0.1,7.6,11.2,11.6,17.5,13.2c3.8,0.9,7.1-0.8,9.2-1.5c1.7-6.4-6-7.3-9.5-10.5h-0.6v-0.3
			c23.6-0.9,41.2,5.7,54.7,15.7c3.4,2.5,7.2,6.1,8.9,10.1c0.6,1.5,0.9,4,0,5.2c-1.2,3.4-5.3,3.1-9.2,4c-9,2.1-21.4-3-25.5-7.1
			c-0.8,1.5,0.4,3.7-0.9,5.2c-1.4,3.7-6.1,2.7-10.5,3.7c-7.1,1.5-18.3-2.1-22.4-4.9c-1.2-0.8-2-2.2-3.1-3.1
			c-0.1-0.8-0.1-1.1-0.3-1.5c0.6-0.6,1.4-1.5,1.8-2.1c8.9-0.7,13.4-0.2,18.5,4.6c-0.1,0.6-0.1,0.6-0.3,0.9c-0.6,1.2-1.9,1.3-3.7,1.2
			v0.6c3.2,0,4.6-0.5,6.5-1.5c0.1-0.6,0.2-1.2,0.3-1.8c-1.1-1.1-1.8-2.5-3.1-3.4c-5-3.3-15.5-5-21.2-1.2c-0.9,4.4,1.8,6.7,4.3,8.6
			c5,3.8,9.3,6,16.3,8c2.3,0.6,4.3,0.1,6.8,0.6c2.2,0.5,5.9,0.6,8.3,0c3.9-1,9.4-5.1,4.9-9.9L339.1,713.8L339.1,713.8z M310.8,684.6
			c1.1,0.7,1.7,2.3,2.8,3.1c0,0.8,0,1.2-0.3,1.5c-2,5.4-13.3,1.4-16-0.6c-0.8-0.6-1.2-1.9-1.8-2.8c0.1-0.6,0.1-0.6,0.3-0.9
			c0.8-2.4,3.2-1.6,5.2-2.8C304.9,682.2,308.4,682.9,310.8,684.6z"/>
		<path class="st0" d="M419.1,745.4c0.1-0.3,0.2-0.6,0.3-0.9c-7.6-0.3-15.2-0.6-22.7-0.9c-1,0.6-2.4,0.3-3.7,0.6
			c-1.6,0.5-3.3,1.2-4.6,1.9c0.2,0.5,0.1,0.3,0.3,0.6c1.9,1.5,12.6,1.5,14.8,0h0.6v-0.6c-3.2-1-9.2,1.6-11.7,0H392v-0.3
			c8.2-0.6,17.3-0.3,25.8-0.3c-0.8,0.6-2.5,0.4-3.4,0.9c-0.3,0.1-0.6,0.2-0.9,0.3v0.6c1.9,0.3,3.7,0.6,5.5,0.9c0.3,0.3,0,0,0.3,0.3
			c-2.7,1.8-9.7,1.1-12.3-0.3v-0.6c-1.4-0.6-7.7,0.6-8.9,0.9c-1,0.2-2.1-0.1-2.8,0.3c-1.3,0.1-1.4,0.2-2.1,0.6
			c0.2,1,0.3,0.9,0.6,1.5c2,0.5,5.4,0.5,7.7,1.2v-0.3h0.3v-0.3c-1.2-0.4-4.4-0.2-5.5-0.9h-0.6c1-0.8,11.1-2.2,12.9-0.9
			c0.5,0.2,0.3,0.1,0.6,0.3c-1.6,0.3-3.3,0.6-4.9,0.9c0.2,0.5,0.1,0.3,0.3,0.6c0.5,0.3,1.5,0.3,2.5,0.3c-0.3,0.6-0.4,0.8-0.9,1.2
			c0.1,0.2,0.2,0.4,0.3,0.6c4.4,0,8-0.5,11.7-1.2c2.2-0.5,4.9,0.4,6.5-0.6h2.5v-0.6c-4.2,0-14.7-0.4-17.2,1.2h-0.9
			c0.3-0.3,0,0,0.3-0.3c1.2-1.4,3.7-0.7,5.8-1.2c3.4-0.8,9.1-2.2,12,0c0.8,0.5,0.3-0.1,0.3,0.9c0.8,0,1.4,0,1.8-0.3h2.1v-0.6
			c-2.8-0.7-6.9-1.9-9.2-3.4C420.8,746.8,421.4,745.6,419.1,745.4z"/>
		<path class="st0" d="M752.9,506c-1.1,1-2.7,1.3-4,2.2c-3.9,2.8-8,7.5-10.8,11.4c-2.2,3.1-4.1,6.6-6.1,9.9
			c-0.9,1.5-1.1,3.1-2.2,4.3v0.6c2.7-0.5,4.3-2.2,6.2-3.4c5.1-3.2,9.7-6.1,14.4-9.5c2.3-1.7,4-4.3,6.5-5.9c0.2-3.7,1-6.6-0.6-9.2
			C755.3,506.1,754.2,506,752.9,506z M749.2,517.1c-1.9,1.4-3.6,3.3-5.5,4.6c-1.6,1.1-3.6,1.7-4.9,3.1h-0.3c1-3.2,6.3-8.6,8.9-10.4
			c1.3-1,3-1.2,4.3-2.2h1.2c0.3,0.4,0.3,0.3,0.6,0.6C753.2,515.1,750.7,515.9,749.2,517.1z"/>
		<path class="st0" d="M596.1,687.7H593c-2,1.6-5.4,1.8-7.7,3.1c-2.1,1.1-4.5,2.6-6.4,4c-1.6,1.2-2.5,3.2-4,4.6
			c0,1.5,0.1,1.8,1.2,2.2c0.3,0.2,0.1,0.2,0.6,0.3c0.3-0.4,0.6-0.5,0.9-0.9c0.3-0.2-0.2-0.8-0.3-1.8c3-3,5.2-4.6,9.5-6.5
			c1.1-0.5,3.5-1.8,4.9-0.9h0.6c-0.2,3-7.1,12.4-9.2,13.8v0.9c5.7-1.5,9.4-12.8,13.2-16.9c-0.1-0.7-0.1-0.9-0.3-1.2L596.1,687.7z"/>
		<path class="st0" d="M746.7,375.4c0.7,1.7,2,4.5,3.4,5.5c0.7,0.5,1,0.3,1.5,0.9c10.2,0.9,14.3-16.7,10.2-26.7
			c-0.8-1.7-4-6.9-7.1-4.9h-0.6c0.2-0.5,0.1-0.3,0.3-0.6c0-1.5-0.2-1.9-0.6-2.8c-0.6-0.1-1.2-0.2-1.9-0.3c-0.3,0.2-0.1,0.1-0.6,0.3
			c0.2,1.9,0.9,1.9,0.9,4C747.3,355.3,743.1,366.2,746.7,375.4z M750.1,359.1c0.7-1.7,2.1-2.7,3.1-4c0.6-0.1,0.6-0.1,0.9-0.3
			c2.3,0,3,0.5,4.3,1.2c2.3,5.5,2.7,15.2-1.2,19.4c-0.6,0.6-1.8,0.9-2.4,1.5C748.3,376.4,747.8,364.7,750.1,359.1z"/>
		<path class="st0" d="M771.9,373.5v-4.9c-0.8-3.5-0.5-8.2-1.2-11.7c-1.5-6.8-0.2-15-2.8-20.6c-1.5-0.4-3.1-0.7-5.2-0.6
			c-0.8,0.8-1.4,1.2-1.2,2.2c0.6,2.8,4.2,3.4,5.2,6.1c0.1,1.3,0.2,2.7,0.3,4c1,4.4,0.9,10,1.8,14.5v3.7c0.5,2.2,1.2,8,0.6,9.8
			c-1.1,3.2-4.5,6.1-6.7,8.3c-5.9,5.9-12.7,13.3-23.1,14.4c-0.2,0.5-0.1,0.3-0.3,0.6c0.2,3.8,3.7,3.1,6.2,4.6
			c0.6-0.1,1.2-0.2,1.8-0.3c0.9-0.6,1.5-1.9,2.2-2.8c1.6-2,4.4-3.1,5.9-5.2h0.3c0,9.4,0.2,19.9,0.3,28.9h0.9
			c2.1-9.1,2-20.3,1.9-31.4c4-3.8,6.6-9.2,10.8-12.9v-0.6h0.3c0,9.7,0.3,19.7,0.3,29.5c0,3.2-0.8,10.7,0,12v1.9h0.6
			c0.8-3.3,1-7.9,1.8-11.7v-5.2c0.9-4.1,0.9-12.1,0-16.3C771.4,384.6,773,378.3,771.9,373.5z"/>
		<path class="st0" d="M571.5,710.4c-1.8,1.6-6.3,1.8-8.3,3.4h-0.3c0.8-1.2,2.3-1.7,3.1-2.8c0.6-0.8,0.8-1.8,1.5-2.5
			c-0.1-0.6-0.1-0.6-0.3-0.9v-0.6c-9-1.6-23.9,6.1-28.6,10.2c-1.2,1-1.9,2.6-3.1,3.7c0,0.8,0.1,1.3,0.3,1.8c5.5,0.4,15.7-3,16.9-7.4
			c0.2-0.2,0.1,0,0-0.3v-0.6c-3.7-0.2-8.7,0.6-11,2.8h-0.3c2-3.1,9.5-5.8,13.5-7.1c1.3-0.4,4.3-1.2,5.6-0.3c0.3,0.1,0.6,0.2,0.9,0.3
			c-0.7,3.1-5.1,6.5-8,7.4v0.6c4.7-1.1,9-3.2,13.2-4.9c2.9-1.2,6.1-1.5,8.6-3.1c1.8-1.2,7.8-9.4,8.3-11.7
			C576.4,699.5,575.8,706.5,571.5,710.4z M547.2,716.6v0.9c-0.6,0.4-1,1.2-1.5,1.5c-1.6,0.9-3.7,0.8-5.2,1.9
			c-0.7-0.1-0.8-0.1-1.2-0.3h-0.3C539.8,717.9,544.8,716.7,547.2,716.6z"/>
		<path class="st0" d="M607.5,480.1c-3.5-2.1-3.9-13-5.2-17.8c-2.5-9.4-3.8-19.3-6.5-28.9c-1.7-6.1-4.1-12.5-3.4-20
			c1.1-1.1,1.8-2.5,3.1-3.4c1.7-1.2,4.5-1.8,5.8-3.4c0.2-0.4-0.1-1-0.3-1.9c-3.6,0.6-6.8,2.7-9.8,4c-6.2,2.6-12.2,4.2-18.4,6.8
			c-2,0.8-4,2.2-6.5,2.4v1.9c0.2,0.1,0.4,0.2,0.6,0.3c0.3,0.3,8-3,10.5-0.9c2.8,1,2.4,4.6,4,6.8c-0.5,4.8-5.2,12.1-7.1,16.3
			c-4.5,10.3-9.1,20.1-14.1,29.8c-1.9,3.7-4.2,10.4-6.8,13.2v0.3c-1.7-2.3-1.5-8.2-2.4-11.4c-2.7-9.6-4.5-20.1-7.4-29.5
			c-0.5-1.8-2.4-9.9-1.2-11.7c0.4-4.2,6.4-6.1,9.8-7.4c-0.1-0.7-0.2-1.4-0.3-2.2c-5.4,0.8-11.1,3.7-16,5.6c-4.6,1.7-8.9,2.4-13.5,4
			c-2.3,0.8-4.9,2.1-7.7,2.4v0.3h-0.3c0.1,0.9,0.2,1.3,0.6,1.8c1.3,0.8,8-2.7,10.8-0.6c4.3,1.5,4.4,8.3,5.8,12.9
			c3.7,12.3,5.6,25.9,9.2,38.4c0.9,3.1,3,13.1,0.9,15.7c-1.1,3.4-6.9,4.8-10.1,6.2c0.1,0.6,0.2,1.2,0.3,1.8c4.7-0.7,9-2.9,13.3-4.3
			c8.3-2.8,16.1-5.1,24-8c-0.1-0.7-0.2-1.5-0.3-2.1c-3.4,0.9-6,1.9-10.8,1.8c-0.6-0.5-1.2-1-1.8-1.6c-0.5-1.6-1.1-3.3-1.6-4.9
			c0.3-3.9,5.3-11,7.1-14.5c5.2-10,9.8-20.2,14.4-30.7c1.8-4,5.9-9.9,6.5-14.4c1.4,0.9,1,3.4,1.5,5.2c1,3.7,1.6,7.6,2.8,11.7
			c2.2,7.8,3,16.1,5.2,24.3c0.8,3,2,8.1,0.6,11.4c-1.4,3.1-6.5,5.2-9.8,6.4c0.1,0.7,0.3,1.4,0.6,1.9c0,0.1,7-2.2,8.3-2.8
			c8.6-3.6,17.4-7.5,26.1-10.8c-0.1-0.7-0.2-1.5-0.3-2.1C615.5,479.2,610.5,482,607.5,480.1z"/>
		<path class="st0" d="M465.4,136.8c1.5,0.7,1.5,2.6,2.2,4c1.4,2.9,3.4,6.4,4.3,9.5v2.5c0.7,2,3.1,2.2,4.6,3.4
			c1.2-0.2,1.7-0.5,2.4-0.9c-0.5-5.8-4.1-10.7-6.1-15.4c-0.6-1.5-1.6-3.5-1.9-4.9c-0.2-0.9,0.5-1.3,0-2.2c-0.4-1-0.5-0.7-1.2-1.2
			c-0.5-0.3-0.3-0.1,0-0.6c0.5-1.1,1.6-2.2,2.1-3.4c1-2.4,1-4.5,3.1-5.8c-0.3-3.2-5-3.6-8.6-3.4c-0.5,0.3-1.2,0.5-1.9,0.6
			c0.4,0.8,0.6,1,1.6,1.2c0.9,9-5.4,17.3-9.6,22.7c-1.6,2.2-4.3,3.5-5.8,5.9h-0.3v0.3C454.5,148.5,463.4,140,465.4,136.8z"/>
		<path class="st0" d="M404.3,141.2c1.5,0.5,3.1,1,4.6,1.5c1.2,0,2.5,0,3.4-0.3c-0.1-5.1-2.8-7.1-4.6-10.5c-0.9-1.7-1.4-4.1-2.8-5.2
			c0.5-1.9,5.6-2.4,7.7-3.1c5-1.6,10.6-3.3,15.7-4.9c2.4-0.8,5.2-0.6,7.1-1.8c1.1,0.1,1.7,0.2,2.2,0.9c1.1,1.7,2,13,1.2,16.3
			c-3.1,12.9-7,23-15,30.7v0.3c3-0.5,4.4-3.4,6.4-4.9c8.2-6.2,13.7-15.3,16.6-26.8c1.7-6.7-1.1-13.3,1.5-19H448
			c-0.6-1.5-8.4-4.3-10.8-4.3c-1.3,1.4-3.1,3.2-4.9,4c-2.8,1.2-6.5,0.9-8.9,2.5c-2.2-0.2-3.9-4.4-2.5-6.1c-0.1-0.7-0.1-0.9-0.3-1.2
			c-1.9-1.5-6.6-1.3-9.8-1.2c-1,1-2,1.2-2.5,2.8H408c-0.2,0.6,0.2,0.4,0.3,0.6c0.2,0.1,1.3,0,1.9,0.3c3.5,0.4,3.4,4.4,5.2,6.5
			c-0.2,0.5-0.1,0.3-0.3,0.6c-1.2,1-10.1,3.5-12,4c-1.4,0.4-3.2-0.5-4.3-0.6c-2.6-0.2-4.9,1.2-6.5,2.2c0.8,1.2,3.4,0.9,4.3,2.2
			C399.9,130.7,401.3,136.3,404.3,141.2z"/>
		<path class="st0" d="M432.6,270.8c6.2,1.9,10.6,8.8,14.1,13.5c1.6,2.1,4,3.7,5.5,5.8c6.6,8.8,14,16.7,20.6,25.5
			c2.5,3.4,6,6.4,8.3,10.1c1.4,0,1.7-0.2,2.5-0.6c1.7-7.2,2.6-14.5,4.6-21.8c0.9-3.4,2.1-7.3,2.4-11.1c2.5,0.9,4.6,4.7,6.2,6.8
			c4.8,6.4,11.6,11.7,16,18.4c1.3-0.1,1.4-0.2,2.2-0.6c1.4-10.4,2.7-20.9,4-31.3v-3.1c1.4-6.2,1.1-13.7,2.4-20
			c1.9-8.5-0.8-16.7,7.7-18.8c0.2-0.8,0.4-1.1,0-1.9c-0.2-0.5-0.1-0.3-0.3-0.6c-0.3-0.2-0.3-0.2-0.9-0.3c-2.4,1.7-8.8,2.9-12,3.7
			c-2.4,0.6-5,0.1-6.8,1.2c-0.3,0.1-0.6,0.2-0.9,0.3c0.1,0.6,0.2,1.2,0.3,1.9c3.5,1.2,6.7-0.2,8.3,2.8c1,2,0.9,9,0.3,11.7
			c-1.9,9-1.2,19.3-3.1,28.3c-0.7,3.1,0.2,9.1-1.2,11.4v0.6c-1.9-0.9-3.1-3.3-4.3-4.9c-2.8-3.6-6.8-6.5-9.6-10.1
			c-1.6-2.2-3.4-4.8-5.5-6.5c0.3-5.9,2-12.1,3.4-17.5c1-4.1,1-7.8,3.1-10.8c1.2-1.7,3.9-2.8,5.8-3.7c0-0.8,0-1.1-0.3-1.5
			c-0.1-0.3-0.2-0.6-0.3-0.9c-4.2,0.6-7.8,2.6-11.7,3.7c-3.5,1-7.1,0.7-9.9,2.1c0.1,0.7,0.1,0.9,0.3,1.2c0.1,0.3,0.2,0.6,0.3,0.9
			c10.8-0.6,9.2,5.3,7.1,13.5c-0.7,2.5-0.2,6-1.5,8v0.6h-0.3c-2.2-3.4-5.5-6.6-8.3-9.5c-1.1-1-2.3-2-3.4-3.1
			c-0.8-1.1-1.2-2.4-2.2-3.4c0.2-3.4,3-4.3,5.6-5.2c-0.1-1.4-0.4-1.6-0.9-2.5c-8,1.2-15,5.7-24,6.1v0.3H456c0,0.8,0,1.1,0.3,1.5v0.6
			c1.8,0.3,4.4-0.4,6.5,0.3c3.3,1.2,6.3,5,8.3,7.7c3,4,7.7,7.4,10.7,11.4c1.6,2.1,3.4,4.9,5.6,6.5c-0.3,5.4-1.8,11.1-3.1,16
			c-0.7,2.5-0.3,5.7-1.5,7.7c-0.2,0.5-0.1,0.3-0.3,0.6c-2.9-5.6-8.6-9.8-12.3-14.8c-7.1-9.5-15.1-18-22.4-27.4
			c0-1.3,0.1-2.1,0.6-2.8c0.6-1.8,2.8-3.4,4.9-3.7c0.1-0.9,0.3-1-0.3-1.9c-0.1-0.3-0.2-0.6-0.3-0.9c-6.2,1-11.8,3.9-17.8,5.6
			c-3.1,0.9-7.2,0.4-9.5,2.2c-0.3,0.1-0.6,0.2-0.9,0.3c0.2,1.2,0.5,1.4,0.9,2.2C427.6,270.8,430.2,270.1,432.6,270.8z"/>
		<path class="st0" d="M723.6,238.3c-0.7,10.7-9.9,14.1-19.6,9.8c-7-3-12.6-9.6-16.9-15.4c-1.5-1.9-3.7-3.5-5.2-5.5
			c-1.4-1.9-2.4-3.9-4-5.5v-0.3h-0.6c0.8,3.3,2.8,6.3,4,9.2c5.2,12,11.8,20.3,21.8,27.4c4.7,3.3,12.6,8.6,19.4,3.7
			c11.9-8.5,6.1-40.3,1.2-52.2c-1.3-3.1-2.3-5.6-3.7-8.3c-2.3-4.5-4.8-11-11.4-11.1c-1.6,1.4-3.4,2.5-4.3,4.6
			c-6,13.7,6.4,29.1,12,36.6C718.3,233.8,720.6,236.7,723.6,238.3z M711.4,204.8h1.5c3,3.1,5.8,6.1,7.7,10.4c1,2.3,1.2,6.3,2.4,8.3
			c-0.2,0.5,0,0.3-0.3,0.6c-0.8,0.8-4.2-3.2-4.9-4C714.4,216.7,707.5,210.7,711.4,204.8z"/>
		<path class="st0" d="M100.3,207.5c4.8-4.9,14.9-17.3,14.8-26.4c-0.5-0.5-0.9-1.3-1.2-1.8c-1.9-0.5-4.4-0.7-7.1-0.6
			c-0.7,2.5-2.1,4.6-3.1,6.8c-2.1,4.8-3.9,9.5-5.8,14.2c-1.6,3.9-2.6,10.1-4.9,13.2v0.6C96.2,212.8,98.4,209.5,100.3,207.5z
			 M101.5,197.7c1.8-4.4,3.1-8.7,5.2-12.6c1.2,0,2.1,0.1,2.8,0.6c0.7,0.4,0.2-0.2,0.6,0.6c0.6,1.5-1.4,4-2.1,5.2
			c-1.4,2.3-2.2,4.6-3.7,6.8c-1.4,2-3.6,3.5-4.9,5.5h-0.3C99.5,201.5,100.7,199.6,101.5,197.7z"/>
		<path class="st0" d="M72,213.7h4.3c0.7-0.9,1.4-1.9,2.2-2.8c2.6-2.7,6-5.5,8-8.6h0.9v4.3c-2.4,2.1-6,5.4-7.1,8.6v2.5
			c-1.6,6.8,1.7,10.3,7.7,9.8c3.9-3.6,10.3-6.6,9.5-13.8c-0.3-0.3,0,0-0.3-0.3c-0.6,0.1-0.6,0.1-0.9,0.3c-2.2,1.2-6,11.1-10.5,8.3
			c-2.3,0-2.5-0.4-3.7-1.2c0.2-2.9,5.1-8.3,7.1-9.5c0.2-4.7,1.5-9.7,0.9-14.1c-0.3-0.1-0.6-0.2-0.9-0.3c-1.1-0.3-1.9,1.3-2.8,2.2
			c-2.2,2.3-5,4.6-6.8,7.4c-2.6,0-11-0.1-12.6,0.9h-0.9c0.8-2,6.7-8.5,4.9-11.4c-0.1-0.3-0.2-0.6-0.3-0.9c-5.6,0-12.4,10-14.1,14.1
			c-0.9,2.1-0.9,4.5-2.1,6.2v0.3c4.2-0.5,8.4-1,12.6-1.6C68.7,213.6,70.9,214.4,72,213.7z M61.6,207.8h-1.9c0.8-3.4,4.2-7.3,8.3-7.4
			v1.5c-1.4,1.9-2.9,3.7-4.3,5.5C62.8,207.5,62,207.5,61.6,207.8z"/>
		<path class="st0" d="M222.3,414.4v0.3c0.5,0.7,0.5,2.1,0.9,2.8c-0.2,0.5-0.1,0.3-0.3,0.6c-1.3,0.9-3.1,0.5-4.9,0.9
			c-3.7,0.9-15.4,3.8-18.1,1.2c-1.7-0.6-2.9-2.8-3.1-4.9c-0.8,0-1.1,0-1.5,0.3h-0.6c1.1,5.9,2.3,11.9,3.4,17.8h0.3v0.3
			c10.8-1.9,21.5-3.7,32.3-5.6c-1.5-5.7-3.1-11.3-4.6-16.9c-0.9-1.3-3.6-1.1-5.2-1.8c-2.7-1.1-6-3.6-7.7-5.8
			c-4.9-6.8-10.4-22.9-6.8-35c2.9-9.8,9.3-16.5,19.7-19.1c5.2-1.2,10.9,0.5,14.1,2.2c9.4,4.8,13.4,11.7,16.3,23
			c3.7,14.7-1,28.1-10.8,32.6c0.6,5.9,1.2,11.9,1.8,17.8c3.5-0.1,6.6-0.8,9.5-1.5c4.9-1.2,9.9-1.4,14.4-2.5
			c3.4-0.8,8.2-0.1,10.8-1.9c0.6-1.3-1.9-10.5-2.5-12.6c-0.4-1.8-0.1-3.6-0.9-4.9v-0.6c-0.7,0.1-1.4,0.2-2.2,0.3
			c0.1,9.3-6.5,8-13.8,9.8c-3.7,0.9-8.1,2.1-12.3,2.2c0-1.3,0-2.7,0-4c0.3-0.6,5.7-3,6.7-3.7c3.6-2.5,7.2-6.4,9.6-10.1
			c1.6-2.5,2.8-5.9,3.7-8.9c1.1-3.8,1.2-9.1,0.3-12.9c-0.6-2.6-0.4-4.7-1.2-7.1c-3.3-9.2-10.3-16-19.1-19.7c-4-1.7-8.5-1.7-13.2-2.8
			c-4.2-0.9-11.7,0.9-14.8,1.9c-14.8,4.4-24.8,11.5-29.5,25.8c-1.8,5.7-1.3,13.5,0.3,18.8C197,402.9,207.2,414.2,222.3,414.4z"/>
		<path class="st0" d="M266.3,579.8c-0.6,2.7,5.9,8.6,8,10.2c1,0.8,2.4,2.5,4,1.8c0.8-0.1,1.1-0.2,1.5-0.3c0.4-0.8,0.9-1.9,0.3-2.8
			C279.9,584.8,269.9,580.5,266.3,579.8z"/>
		<path class="st0" d="M337.6,594.5c0.3-0.1,0.6-0.2,0.9-0.3c-0.2-4-7.8-5.7-12-4.6c-1.9,0.5-4,1.7-5.8,2.2
			c-1.4,0.1-2.9,0.2-4.3,0.3c-0.5-5-2.9-8.9-3.1-14.1c4.6-0.1,10.4-0.7,13.5-2.5c-0.1-1.5-0.3-1.5-0.9-2.4c-3.5-0.8-9.6-1-12.3,0.9
			c-0.8,0-1.1,0-1.5-0.3c-1.7-2.2-0.9-6.6-2.5-8.9v-1.2c3.3-0.7,8.7-1.3,10.4-3.7c0.2-0.3,0.1-0.1,0.3-0.6c-0.3-0.3-0.4-0.5-0.6-0.9
			c-4.8-1.2-6.9-0.4-11.1,1.2c-1.3-4.2,0.3-7.5-4-8.6c0.9-1.6,3.9-1.5,5.8-2.2c3-1,6.3-2.3,8.9-3.7c0.2-0.5,0.1-0.3,0.3-0.6
			c-0.2-1.6-0.6-1.5-1.2-2.5c-4.4-0.3-8,0.1-10.5,2.5h-0.6c0.4-2.3,1.8-5.6,3.1-7.4c0.9-1.3,2.5-1.1,3.1-2.8h0.3V534
			c-0.6-0.8-1.2-1.6-1.9-2.4c-1.4-1-3.5-1.1-4.9-2.2c-2,0-4,0-5.2,0.6c0.2,1.2,0.7,1.9,0.9,2.8c0.9,3.2-2.2,13-3.4,14.4
			c-0.9,1.2-12,5.2-15.1,4.3c-0.7-0.2-2.8-1.3-3.4-1.9c-0.2-0.3-0.1-0.1-0.3-0.6c4.4-4.1,7.5-13.2,13.5-15.1c0.1-0.5,0.2-1,0.3-1.5
			c-1.5-1.6-8.8-9.2-12.6-6.8c-0.3,0.1-0.6,0.2-0.9,0.3c0,2.6,1.3,4.6,0.6,7.4c-1.4,5.5-4.6,12.1-7.4,16.6c-1.7,2.7-5.4,5.7-5.5,9.6
			c5-0.5,6.2-5.7,10.1-7.1c1.1,1,2.3,2.1,3.4,3.1c1.6,2.4,1.3,6,2.2,9.2c1.4,6.6,2.9,13.3,4.3,20c0.2,3.3,0.4,6.6,0.6,9.9
			c0.8,3,3.3,8.1,6.4,8.8c0.5,0.3,0.9,0.2,1.5-0.3c1.1-0.9,0.5-2.4,1.2-3.7c1.7-1.2,4.8-0.9,7.1-1.5c6.3-1.7,13.6-1.5,20.6-3.1
			C329.5,594.1,335,596,337.6,594.5z M287.8,554.6c0.5-0.8,8.6-2.1,9.5-1.5c3.3,1.5,2.1,6.3,4,9.2c-0.6,1.5-8.1,3.8-10.5,4
			C290.5,563,289.9,556.3,287.8,554.6z M291.8,569.6c2.3-0.2,8.4-2.2,10.1-3.4h0.3c0.6,2.8,0.9,7.6,2.5,9.9c-1.1,2.7-7.9,2.5-10.5,4
			C293.2,579.5,291.8,571.7,291.8,569.6z M297.3,595.5c-0.6-4.4-2.7-8.3-2.8-12.9c4.7-0.1,7.1-2,11-2.5c0.2,2.9,2,10.9,3.4,12.9
			c0,0.2,0,0.4,0,0.6C305.3,594.4,301.4,595.5,297.3,595.5z"/>
		<path class="st0" d="M45.6,369.5c0.6,0.2,1.1,0.3,1.5,0.6c6.1-0.4,7.3-5.3,10.4-8.6c2.7,6.4,0.7,17.5-5.2,19.1
			c-2.5,1.7-6.2-0.5-7.7-1.8c-5-4.7-6.1-11.7-8-19.7c-0.6-2.7,0.3-8.1-0.9-10.2c0-3.1,0.7-8.8-0.9-10.4v-0.3l-0.6,0
			c-0.1,19.2-1.1,48.7,13.8,52.9c5.4,1.5,8.4-2.1,10.1-4.6c6.1-9.1,4.4-26.8-1.5-34.4c-2.6,0.3-6.4,6.5-7.7,8.6
			c-0.6-0.1-0.6-0.1-0.9-0.3c-0.7-0.3-0.7-0.5-1.2-0.9c-0.5-7.3,1-14,1.2-20.9c8.1,0.8,15.1,5.4,23.4,5.8c0-1.4,0-3.4,0.6-4.3
			c-0.1-0.7-0.1-0.9-0.3-1.2c-1.1-0.9-7.4-2.4-9.2-2.4V336h-0.3c1.1-9.1-1.5-16.2-7.7-18.8c-3.5-0.6-7-1.2-10.5-1.9
			c-1.8-0.6-2.7-2.1-4-3.1c-0.5-3-1-6.3,1.2-8c-0.2-1.1-0.3-1.3-0.9-1.9v-0.3H40c-1,1.8-1.9,3.8-2.5,6.2c-1.8,7.6,2.4,14.1,7.1,15.7
			c3.1,0.5,6.1,1,9.2,1.5c2.4,0.9,3.5,2.9,5.2,4.6c-0.1,4-3.9,4.4-7.1,3.4c-5-1.6-10.3-2.7-15.4-4.6c-1.3-0.5-2.6-1.3-4.3-1.5
			c-0.2,1.9-0.4,3.9-0.6,5.8c4.3,1.3,8.6,2.7,12.9,4C44.4,348.1,40.2,361.1,45.6,369.5z"/>
		<path class="st0" d="M84,539.2c1.9,1,2.3,5.3,3.1,7.4c1.6,4.3,4.1,10,8,12v0.3h0.6c-0.5-3.5-2.5-6.6-3.7-9.6
			c-2.7-6.6-4.8-13.6-7.1-20.3c-1.3-3.9-2.2-7.7-3.4-11.4c-0.6-1.9-0.5-4.1-1.6-5.6v-0.9c2.1,0.8,5.3,0.7,7.1,1.9h1.6
			c-0.3-1.6-0.7-4.3-1.6-5.6c-0.9-1.5-6.9-1.5-8.6-2.7c-2.4-1.9-4.7-7.4-6.5-10.2c-4.4-6.9-10.1-14.2-16.6-19.1
			c-3.4-2.5-5.8-5.2-12-5.2c-0.7,0.5-1.4,1-2.1,1.5c-1.4,6.1,1.1,17.5,4.6,20.3v0.6c-1.5-0.4-3.1-1.2-4-2.1h-0.3
			c0.1,1.8,0.4,4,1.2,5.2c0.4,1.5,2.8,2.7,4.3,3.1c1.9,8.1,4.6,16.3,7.4,23.7c2.2,5.9,3.4,11.5,5.8,17.2c1.2,2.8,4.1,4.8,4.9,7.7
			h0.9c-0.7-2.6-2.1-5-3.1-7.4c-2.8-6.8-5.1-14-7.4-20.9c-1.5-4.5-2.5-8.9-4-13.2c-0.5-1.6-0.4-3.3-1.2-4.6v-0.3
			c2.1,0.4,3.3,1.5,4.9,2.2c3.6,1.6,7,2.2,10.8,3.7c2.7,1.1,6.2,2.7,9.5,3.1c0.4,2.8,2,10.1,3.4,12v0.9c-4.7-3.2-4.6-7.8-12.9-7.1
			c-0.4,0.5-1,0.9-1.5,1.2c-0.8,1.9-0.8,5,0,7.1c2,5,8.3,15.5,13.5,16.9C80.1,542.5,83.1,540.7,84,539.2z M76,504.2
			c-3.2-0.2-6-1.5-8.6-2.4c-6.9-2.6-13.2-4.8-19.4-7.7c-0.7-2.8-5.9-12.8-3.1-16.3c0.2-0.3,0.4-0.6,0.6-0.9c0.6-0.2,0.6-0.1,0.9-0.3
			c9.5,1.1,19,12.7,23.7,19.1c1.8,2.5,3.3,6.2,5.8,8L76,504.2L76,504.2z M68,527.2c0-3,1.2-3,2.4-4.6c0.7-0.1,0.9-0.1,1.2-0.3
			c4.8,0,5.9,2.2,8.6,4c0.4,1.8,0.7,2.6,0.6,4.6c-0.9,1.1-1.8,2.3-2.8,3.4c-0.8,0.6-1.7,0.8-2.5,1.5C70.4,535.7,70.2,530.5,68,527.2
			z"/>
		<path class="st0" d="M612.1,125.2c3.6,4.8,7.6,9.7,14.1,11.4c7.4,1.9,11-6.9,13.8-10.2c2.9-3.4,9.2-4.2,11.4-8.6
			c0.8-1.6,0.3-4.8-0.3-6.1c-1.4-3.3-8.3-12.6-11.1-14.4c0.2-1.9,1-1.9,1.8-3.1c1.9,0.9,2.6,3.7,4,5.2c1.8,2,4.2,3.1,6.2,4.9
			c2.9,0,4.7-0.7,6.1-2.2h0.3c-0.7-2.1-3.4-3.5-4.9-4.9c-3.2-3.2-5.7-7.3-8.9-10.4v-0.3c-1.6,0.6-7,5.3-8,6.8c-1.9-0.7-3-2.8-4.6-4
			c-5.2-4-10.2-9.1-19.3-8.9c-1.2,0.9-2.9,0.9-4.3,1.5c-4.1,1.8-8.4,5.3-10.1,9.5c-1.9,4.7,0,11.6,1.5,15.1
			C602.8,113.4,607.8,119.4,612.1,125.2z M610.5,82.4c5.2,0,7.7,3.6,10.8,5.9c7.5,5.6,13.8,12.6,19.4,20.3c2.5,3.4,5.9,5.3,5.8,11.4
			c-0.9,0.9-1.2,1.7-2.8,2.2c-0.3,0.2-0.1,0.1-0.6,0.3c-4.4-7.2-10.6-13.3-15.7-20c-1.6-2.2-4.2-4-5.8-6.1
			c-2.8-3.7-6.2-6.7-9.2-10.1c-0.9-1-1.3-2-2.4-2.8C610.2,82.7,610.2,82.9,610.5,82.4z M602.9,86.7h1.2c1.5,2.3,4.2,3.9,5.9,6.1
			c4.6,6.1,10.2,11.4,14.7,17.5c2.8,3.8,5.9,7.3,8.6,11.1c1.4,1.9,2.5,4.4,4.3,5.8c-0.3,1.4-0.9,2.1-1.5,3.1
			c-5.4,1.3-8.1-2.3-11.1-5.2c-7.3-7.3-12.2-16.3-17.8-25.2C605.2,96.9,600.3,91.1,602.9,86.7z"/>
	</g>
</g>
</svg>
