<?xml version="1.0" encoding="utf-8"?>
<!-- Generator: Adobe Illustrator 28.4.1, SVG Export Plug-In . SVG Version: 6.00 Build 0)  -->
<svg version="1.1" id="Layer_1" xmlns="http://www.w3.org/2000/svg" xmlns:xlink="http://www.w3.org/1999/xlink" x="0px" y="0px"
	 viewBox="0 0 800 800" style="enable-background:new 0 0 800 800;" xml:space="preserve">
<style type="text/css">
	.st0{fill:#FFCC00;}
</style>
<path class="st0" d="M402.8,435c-29.2,60.3-69.2,142.1-89.1,178.9c-19.3,33.5-35.2,29.1-47.9,0.9C221.9,511,131.7,329.1,89.3,227.1
	c-4.5-13.7-11.1-25.5-19.5-35.8l0.2,0.2c-9.3-5.4-20.4-8.5-32.2-8.5c-1,0-2,0-3,0.1h0.2c-6.5-0.8-9.8-2.3-9.8-5v-14.2l1.6-1.4
	c28.9-0.2,168.7,0,168.7,0l1.6,1.4v13.6c0,3.7-2.3,5.5-7,5.5l-17.6,1c-15.2,0.9-22.7,5.1-22.7,13.6c0.6,6.9,2.5,13.3,5.3,19.1
	l-0.1-0.3C188.7,299,305.4,545,305.4,545l4.2,1.5L385,396.2l-15.1-33.3l-51.8-102c0,0-9.9-20.4-13.4-27.2
	c-22.8-45.1-22.2-47.4-45.2-50.5c-6.5-0.7-9.8-1.6-9.8-4.7v-14.6l1.9-1.4h134.1l3.5,1.1v14.1c0,3.3-2.4,4.7-7.1,4.7l-9.6,1.5
	c-24.8,1.9-20.6,11.9-4.2,44.4l49.4,101.6l54.9-109.5c9.1-20,7.3-25,3.5-29.6c-6.1-4.8-13.9-7.6-22.3-7.6c-1,0-2.1,0-3.1,0.1h0.1
	l-6.3-0.7c0,0,0,0-0.1,0c-1.7,0-3.3-0.6-4.5-1.6l0,0c-1.3-0.9-2.1-2.3-2.1-3.9c0-0.1,0-0.1,0-0.1l0,0v-13.4l1.9-1.4
	c39-0.3,126.3,0,126.3,0l1.8,1.4v13.6c0,3.8-1.8,5.6-6,5.6c-20.2,0.9-24.4,3-32,13.7c-3.8,5.8-11.7,18.4-20.2,32.4l-71.9,133.5
	l-2,4.2l87.2,178.4l5.3,1.5l137.3-326.1c4.8-13.2,4-22.6-2-27.9c-6.2-5.8-14.6-9.4-23.8-9.4c-1,0-2.1,0.1-3,0.1h0.1l-13.1-0.5
	c-0.1,0-0.1,0-0.2,0c-1.7,0-3.2-0.5-4.5-1.4l0,0c-1.3-0.8-2.1-2.2-2.2-3.7v0v-13.6l1.8-1.4h155l1.3,1.4v13.6c0,3.7-2.3,5.6-6.5,5.6
	c-0.3,0-0.7,0-1.1,0c-16.4,0-31.6,4.9-44.3,13.3l0.3-0.2c-10.2,8.8-18.1,20-22.8,32.8l-0.2,0.6c0,0-126.3,289.2-169.5,385.5
	c-16.4,31.4-32.9,28.6-47-1c-17.9-36.6-55.4-118.3-82.7-178.4L402.8,435z"/>
</svg>
